<?xml version="1.0" encoding="utf-8"?>
<!-- Generator: Adobe Illustrator 23.0.2, SVG Export Plug-In . SVG Version: 6.00 Build 0)  -->
<svg version="1.1" id="Layer_1" xmlns="http://www.w3.org/2000/svg" xmlns:xlink="http://www.w3.org/1999/xlink" x="0px" y="0px"
	 viewBox="0 0 73.4 22.1" style="enable-background:new 0 0 73.4 22.1;" xml:space="preserve">
<style type="text/css">
	.st0{fill:#05153F;}
</style>
<title>Asset 2</title>
<g>
	<g id="Capa_1">
		<path class="st0" d="M63.1,21.8c-0.5,0.4-1.2,0.4-1.6-0.1c-0.4-0.4-0.4-1,0-1.5l8.1-8L1.1,11.9c-0.6,0.1-1.2-0.4-1.2-1
			c-0.1-0.6,0.4-1.2,1-1.2c0.1,0,0.1,0,0.2,0L69.6,10l-8-8c-0.4-0.4-0.4-1.1,0-1.6C62,0,62.7,0,63.1,0.4c0,0,0,0,0,0l9.9,10
			c0.4,0.4,0.4,1.1,0,1.6L63.1,21.8z"/>
	</g>
</g>
</svg>
