<?xml version="1.0" encoding="utf-8"?>
<!-- Generator: Adobe Illustrator 23.0.3, SVG Export Plug-In . SVG Version: 6.00 Build 0)  -->
<svg version="1.1" id="Calque_1" xmlns="http://www.w3.org/2000/svg" xmlns:xlink="http://www.w3.org/1999/xlink" x="0px" y="0px"
	 width="147.5px" height="101.1px" viewBox="0 0 147.5 101.1" style="enable-background:new 0 0 147.5 101.1;" xml:space="preserve"
	>
<style type="text/css">
	.st0{fill:#0C183D;}
	.st1{fill-rule:evenodd;clip-rule:evenodd;fill:#545960;}
	.st2{fill-rule:evenodd;clip-rule:evenodd;fill:#7B7B7B;}
	.st3{fill:#FFFFFF;}
	.st4{fill:#BB2025;}
</style>
<g>
	<path class="st0" d="M134.2,63.6l13.3,0l-6.4-9.9l5.8-8.8l-26.7-0.1c0,0.9,0.1,1.7,0.1,2.5l12,0h2v2V63.6z"/>
	<path class="st1" d="M120.2,47.4c-0.1-2.9-0.3-6-0.6-9.2c0,0-2.4-14.3-9-27.8l3.4-0.9L109.5,0L96.9,3.1c0,0,8.5,22.7,8.6,44.3
		L120.2,47.4z M114.7,40.5c0,1.2-1,2.1-2.1,2.1c-1.2,0-2.1-1-2.1-2.1c0-1.2,1-2.1,2.1-2.1C113.8,38.4,114.7,39.3,114.7,40.5z
		 M113.1,37l-0.7,0c-2.3-17-9.3-33.2-9.3-33.2C110.6,17.6,113.1,37,113.1,37z M109.1,28.7l-0.5,0c-2-12.6-7.5-24.4-7.5-24.4
		C106.9,14.4,109.1,28.7,109.1,28.7z"/>
	<path class="st1" d="M92.2,80.5c-4.7,3.2-10.8,5.1-18.9,5.3c-8-0.1-14.2-2.1-18.9-5.3H37.9c12.7,17.4,31.8,18,35.3,18h0.6
		c3.6,0,22.7-0.6,35.3-18H92.2z"/>
	<path class="st2" d="M109.5,80.5c-5.8,8.3-16.7,18.5-35.7,18.9v0c-0.1,0-0.5,0-0.6,0v0c-19-0.5-29.9-10.6-35.7-18.9h-3.7
		c11.9,19.9,34.7,20.7,39.6,20.6c4.8,0.1,27.6-0.7,39.6-20.6H109.5z"/>
	<g>
		<g>
			<path class="st0" d="M26.5,47.4c0-0.8,0.1-1.7,0.1-2.5L0.6,45l5.8,8.8L0,63.6l12.9,0V49.5v-2h2L26.5,47.4z"/>
			<path class="st1" d="M26.5,47.4l14.8,0c0.1-21.6,8.6-44.3,8.6-44.3L37.2,0l-4.5,9.5l3.4,0.9c-6.6,13.6-9,27.8-9,27.8
				C26.8,41.5,26.6,44.5,26.5,47.4z M38.7,28.8l-0.5,0c0,0,2.2-14.4,8-24.4C46.2,4.3,40.7,16.2,38.7,28.8z M44.2,3.9
				c0,0-7,16.1-9.3,33.2l-0.7,0C34.2,37,36.7,17.6,44.2,3.9z M34.3,38.4c1.2,0,2.1,1,2.1,2.1c0,1.2-1,2.1-2.1,2.1
				c-1.2,0-2.1-1-2.1-2.1C32.2,39.3,33.1,38.4,34.3,38.4z"/>
			<g>
				<path class="st3" d="M134.2,47.5h-2L15,47.5h-2v2v29v2h2h117.2h2v-2v-29V47.5L134.2,47.5z"/>
				<rect x="15" y="49.5" class="st0" width="117.2" height="29"/>
			</g>
		</g>
		<g>
			<polygon class="st3" points="23.9,56.2 20.8,56.2 20.8,56.5 20.8,62.7 19.6,64.1 20.8,65.4 20.8,72 23.9,72 23.9,67.7 25,66.2 
				29.2,72 33,72 26.9,63.6 32.4,56.2 28.7,56.2 23.9,62.7 			"/>
			<polygon class="st3" points="105.9,56.2 102.8,56.2 102.8,56.5 102.8,62.7 101.5,64.1 102.8,65.4 102.8,72 105.9,72 105.9,67.7 
				107,66.2 111.2,72 115,72 108.9,63.6 114.4,56.2 110.6,56.2 105.9,62.7 			"/>
			<polygon class="st3" points="122,61.7 119.4,56.2 115.9,56.2 120.4,65.3 120.4,72 123.6,72 123.6,65.3 128.1,56.2 124.6,56.2 			
				"/>
			<polygon class="st3" points="89.6,65.5 89.6,70.5 92,72 97.5,72 99.9,70.5 99.9,67 99.7,67 96.8,67 96.8,68.9 92.7,68.9 
				92.7,59.2 96.8,59.2 96.8,61.2 99.9,61.2 99.9,57.6 97.5,56.1 92,56.1 89.6,57.6 89.6,62.7 88.3,64.1 			"/>
			<polygon class="st3" points="35.6,65.5 35.6,71.9 44.2,71.9 44.2,68.8 38.8,68.8 38.8,65.4 43,65.4 43,62.3 38.8,62.3 38.8,59.3 
				44.2,59.3 44.2,56.2 35.6,56.2 35.6,62.8 34.4,64.1 			"/>
			<polygon class="st3" points="59.6,64 58.4,62.7 58.4,56.1 55.3,56.1 55.3,65.4 49.8,56.1 46.9,56.1 46.9,62.6 45.8,63.9 
				46.9,65.2 46.9,71.8 50,71.8 50,71.6 50,62.5 55.5,71.8 58.4,71.8 58.4,65.4 			"/>
			<polygon class="st3" points="71.2,59.3 71.2,56.1 60.8,56.1 60.8,59.3 64.4,59.3 64.4,62.6 63.2,64 64.4,65.3 64.4,71.9 
				67.6,71.9 67.6,71.6 67.6,65.4 68.8,64 67.6,62.6 67.6,59.3 			"/>
			<polygon class="st3" points="86.5,64 85.3,62.6 85.3,56.1 85,56.1 82.1,56.1 82.1,68.6 77.5,68.6 77.5,56.1 74.3,56.1 74.3,62.7 
				73.2,64 74.3,65.3 74.3,70.4 76.7,72 82.9,72 85.3,70.4 85.3,65.4 			"/>
		</g>
		<path class="st4" d="M95.2,18.3c0,0,0-1-0.5-1.8l0.5-1.3L94.2,16c0,0-0.1-0.1-0.1-0.1l0-1.6l-1,1.3c-0.1-0.1-0.4-0.1-0.7-0.2
			c-0.6-0.2-1.4-0.5-1.8-0.6l0.4,0.4c-0.3,0-0.6,0-0.9,0l-1.5-0.2l0.7,0.3c-0.3,0-0.6,0.1-0.9,0.1l-2.1,0l0.7,0.3
			c-0.2,0-0.4,0.1-0.5,0.1l-1.9,0.1l1,0.2c-0.1,0-0.3,0.1-0.4,0.2l-2.8,0.7l1.1,0.1c-0.2,0.1-0.5,0.3-0.7,0.4l-1.9,0.6l0.9,0
			c-0.2,0.2-0.5,0.3-0.8,0.5L79.1,19l0.8,0c-0.2,0.1-0.4,0.3-0.5,0.4L78,19.9l0.6,0.1c0,0,0,0-0.1,0.1c0,0-2.2,3.6-7.4,3.6
			c0,0-3.3,0-4.1-0.1c-0.5-0.1-3.4-0.4-5.5,0.5c-1.7-0.5-11-2.6-10.1,6.7c0,0,0.6,8.2-0.2,9.1c0,0,1.6-1.7,1.9-3.4
			c0,0,0.1,1.5-0.2,2c0,0,2.6-1.8,2.3-5.4c-0.3-3.6,0-9,5.1-8.1c-0.7,0.7-1.2,1.7-1.1,3.2c0.4,5.6,1.5,7.1,0.2,8
			c-1.4,0.9-2.3,1.5-2,2.3c0.2,0.9,1,5.3,0.9,6.6c-0.1,1.3,0.1,2.4,0.4,2.6c0.3,0.1,0.5,0.5,0.5,1c0,0.6-0.1,0.8-0.1,0.8H62
			c0,0-2.5-2.4-2.6-6.1L59.2,39c0,0,0-0.4,0.4-0.5c0.4-0.2,2.6-1,4.9-3.1c0,0,0.3,0,0.1,0.4c-0.2,0.4-1.1,1.1-1.1,1.1
			s-0.8,0.4-0.5,1.3c0.3,0.9,1.8,7.2,1.8,8.3c0,1.1,0.2,1.5,0.8,1.5v1.5h3.2c0,0-3.7-3.1-3.8-10.9c0,0,0-0.6,0.5-0.9
			c0.5-0.3,4.3-2.6,5.2-4.6c0,0,4.4,0.7,5.9,0.5v11.5c0,0,0.1,0.3-0.1,0.5c-0.2,0.2-0.6,1.7-0.2,2c0.4,0.3,0.3,0.5,0.3,0.5v1.4h2.6
			c0,0-2.4-3.2-1.3-10.4c0,0,0.5-3.8,1.3-4.8l0.3,11.6c0,0,0.1,0.3-0.1,0.4c-0.2,0.1-0.4,1.1,0.2,1.5c0,0,0.2,0.2,0.2,0.4v1.3h2.9
			c0,0-2.9-3.2-1.7-10.6c0,0,0.2-4.6,1.2-5.4c1-0.8,2-2,2-4.6c0-2.5-0.2-3.5,1-4.8c1.2-1.4,2.8-3.6,6.1-3.9c0,0,0.3,2,1.8,2.5
			c0,0,0.2,2.4,1.4,2.1c0,0,1.3-0.1,1.1-1.8C95.4,21.3,95.2,18.3,95.2,18.3z"/>
	</g>
</g>
</svg>
