<?xml version="1.0" encoding="utf-8"?>
<!-- Generator: Adobe Illustrator 23.0.3, SVG Export Plug-In . SVG Version: 6.00 Build 0)  -->
<svg version="1.1" id="Calque_1" xmlns="http://www.w3.org/2000/svg" xmlns:xlink="http://www.w3.org/1999/xlink" x="0px" y="0px"
	 width="267.6px" height="19.1px" viewBox="0 0 267.6 19.1" style="enable-background:new 0 0 267.6 19.1;" xml:space="preserve">
<style type="text/css">
	.st0{fill:#FDD334;}
	.st1{fill:#FFFFFF;}
	.st2{fill-rule:evenodd;clip-rule:evenodd;fill:#FFFFFF;}
	.st3{fill-rule:evenodd;clip-rule:evenodd;fill:#D8E5EF;}
	.st4{fill:#EBEBEB;}
	.st5{fill:#D8E5EF;}
	.st6{fill:#F9FAFA;}
	.st7{fill:#0C183D;}
	.st8{fill-rule:evenodd;clip-rule:evenodd;fill:#545960;}
	.st9{fill-rule:evenodd;clip-rule:evenodd;fill:#7B7B7B;}
	.st10{fill:#BB2025;}
</style>
<g>
	<g>
		<path class="st1" d="M56.8,0h1v1c0,0.8-0.4,1.2-1.2,1.2h-1v-1C55.6,0.4,56,0,56.8,0z M55.6,5.1C55.6,4.3,56,4,56.8,4h1v11h-1
			c-0.8,0-1.2-0.4-1.2-1.2V5.1z"/>
		<path class="st1" d="M63.4,12.7c0.3,0.2,0.6,0.4,1,0.4v1c0,0.5-0.2,0.8-0.7,0.9c-0.4,0.1-0.7,0.1-1.1-0.1
			c-0.6-0.3-1.1-0.7-1.4-1.2c-0.4-0.6-0.6-1.3-0.6-2.2V1.2c0-0.8,0.4-1.2,1.2-1.2h1v11.4C62.8,12,63,12.4,63.4,12.7z"/>
		<path class="st1" d="M74.6,4.9c1.1,0.9,1.6,2,1.6,3.3V15h-0.7c-0.5,0-1-0.3-1.2-0.9c-0.9,0.9-2.1,1.2-3.4,1.2
			c-1.4,0-2.6-0.4-3.6-1.3c-1.1-0.9-1.6-2-1.6-3.3V8.2c0-1.3,0.5-2.4,1.6-3.3c1-0.8,2.2-1.3,3.6-1.3C72.4,3.6,73.6,4,74.6,4.9z
			 M71,5.8c-0.9,0-1.6,0.3-2.3,0.8c-0.5,0.5-0.8,1-0.8,1.6v2.6c0,0.6,0.3,1.2,0.8,1.6c0.6,0.5,1.4,0.8,2.3,0.8s1.6-0.3,2.3-0.8
			c0.5-0.5,0.8-1,0.8-1.6V8.2c0-0.6-0.3-1.2-0.8-1.6C72.6,6.1,71.9,5.8,71,5.8z"/>
		<path class="st1" d="M92,5.1C92,4.3,92.5,4,93.3,4h1v6.8c0,1.4-0.4,2.5-1.2,3.3c-0.8,0.8-1.9,1.2-3.3,1.2c-1.4,0-2.5-0.5-3.3-1.4
			c-0.8,0.9-2,1.4-3.3,1.4c-1.4,0-2.5-0.4-3.3-1.2c-0.8-0.8-1.2-1.9-1.2-3.3V5.1C78.7,4.3,79.1,4,80,4h1v6.8c0,0.8,0.2,1.4,0.6,1.8
			c0.3,0.4,0.9,0.6,1.7,0.6c0.7,0,1.2-0.2,1.6-0.6c0.4-0.4,0.6-1,0.6-1.8V5.1c0-0.8,0.4-1.2,1.2-1.2h1v6.8c0,0.8,0.2,1.3,0.6,1.8
			c0.4,0.4,0.9,0.6,1.6,0.6c0.8,0,1.3-0.2,1.7-0.6c0.4-0.4,0.6-1,0.6-1.8L92,5.1L92,5.1z"/>
		<path class="st1" d="M106.5,4l-4.3,12.1c-0.1,0.3-0.2,0.5-0.3,0.8c-0.1,0.2-0.2,0.5-0.3,0.7c-0.3,0.5-0.7,0.8-1.2,1.1
			c-0.4,0.2-0.8,0.2-1.1,0.1c-0.4-0.1-0.7-0.4-0.7-0.9v-1c0.3,0,0.5-0.1,0.7-0.2c0.3-0.1,0.5-0.3,0.5-0.5l0.4-1.1
			c-0.7-0.2-1.1-0.5-1.3-1.1l-3.2-9.1c-0.1-0.3-0.1-0.5,0-0.7C95.8,4.1,96,4,96.3,4h1.4l3.2,9.1h0l3-8.3c0.2-0.5,0.6-0.8,1.2-0.8
			L106.5,4L106.5,4z"/>
		<path class="st1" d="M115.4,4.2c0.5,0.3,1,0.7,1.4,1.2c0.4,0.6,0.6,1.2,0.6,1.9c0,0.6-0.1,1.1-0.4,1.6c-0.2,0.4-0.5,0.8-0.9,1
			c-0.4,0.3-0.8,0.5-1.3,0.6c-0.4,0.1-0.9,0.2-1.4,0.2h-2.6c-0.2,0-0.3,0-0.4,0c-0.2,0-0.3-0.1-0.3-0.2v0.9c0,0.5,0.3,0.9,0.8,1.2
			c0.4,0.3,0.9,0.4,1.5,0.4c0.5,0.1,1,0,1.6-0.1c0.4-0.1,0.7-0.2,1-0.5c0.1-0.1,0.2-0.2,0.3-0.3c0.3-0.4,0.8-0.5,1.3-0.2l1.1,0.5
			c-0.2,0.5-0.5,0.9-0.8,1.2c-0.5,0.5-1.1,0.9-1.9,1.1c-0.7,0.2-1.4,0.3-2.1,0.3c-0.7,0-1.2-0.1-1.7-0.2c-0.6-0.2-1.1-0.4-1.6-0.7
			c-0.5-0.4-1-0.8-1.2-1.5c-0.3-0.6-0.4-1.2-0.4-1.9V7.5c0-0.5,0.1-1.1,0.4-1.6c0.4-0.8,1-1.4,1.8-1.8c0.8-0.4,1.6-0.5,2.6-0.5
			C113.5,3.6,114.5,3.7,115.4,4.2z M114.6,8.3c0.3-0.2,0.5-0.5,0.6-0.9c0-0.4-0.1-0.8-0.4-1c-0.4-0.3-1.1-0.5-1.6-0.5
			c-0.6,0-1.2,0-1.7,0.1c-0.5,0.1-0.8,0.3-1.1,0.5c-0.3,0.3-0.5,0.6-0.5,1v1h3.6C113.9,8.5,114.3,8.4,114.6,8.3z"/>
		<path class="st1" d="M119.4,7.8c0-1.3,0.4-2.3,1.3-3c0.7-0.6,1.5-0.9,2.5-0.9h1.4v1c0,0.8-0.4,1.2-1.1,1.2h-0.3
			c-0.4,0-0.7,0.1-1,0.4c-0.3,0.3-0.5,0.7-0.5,1.3V15h-1c-0.8,0-1.2-0.4-1.2-1.2L119.4,7.8L119.4,7.8z"/>
		<path class="st1" d="M138.9,6.4c-0.4-0.4-0.9-0.6-1.7-0.6c-0.7,0-1.2,0.2-1.6,0.6c-0.4,0.5-0.6,1-0.6,1.8V15h-1
			c-0.8,0-1.2-0.4-1.2-1.2V8.2c0-0.7-0.2-1.3-0.6-1.8c-0.4-0.4-0.9-0.6-1.6-0.6c-0.8,0-1.3,0.2-1.7,0.6c-0.4,0.4-0.6,1-0.6,1.8V15
			h-1c-0.8,0-1.2-0.4-1.2-1.2V8.2c0-1.4,0.4-2.5,1.2-3.3c0.8-0.8,1.9-1.3,3.3-1.3c1.2,0,2.1,0.3,2.9,1c0.1,0.1,0.2,0.2,0.4,0.4
			c0.2-0.2,0.3-0.3,0.4-0.4c0.8-0.7,1.7-1,2.9-1c1.4,0,2.5,0.4,3.3,1.3c0.8,0.8,1.2,1.9,1.2,3.3V15h-1c-0.8,0-1.2-0.4-1.2-1.2V8.2
			C139.5,7.4,139.3,6.8,138.9,6.4z"/>
		<path class="st1" d="M152.7,4.9c1.1,0.9,1.6,2,1.6,3.3V15h-0.7c-0.5,0-1-0.3-1.2-0.9c-0.9,0.9-2.1,1.2-3.4,1.2
			c-1.4,0-2.6-0.4-3.6-1.3c-1.1-0.9-1.6-2-1.6-3.3V8.2c0-1.3,0.5-2.4,1.6-3.3c1-0.8,2.2-1.3,3.6-1.3C150.4,3.6,151.7,4,152.7,4.9z
			 M149.1,5.8c-0.9,0-1.6,0.3-2.3,0.8c-0.5,0.5-0.8,1-0.8,1.6v2.6c0,0.6,0.3,1.2,0.8,1.6c0.6,0.5,1.4,0.8,2.3,0.8
			c0.9,0,1.6-0.3,2.3-0.8c0.5-0.5,0.8-1,0.8-1.6V8.2c0-0.6-0.3-1.2-0.8-1.6C150.7,6.1,149.9,5.8,149.1,5.8z"/>
		<path class="st1" d="M156.8,7.8c0-1.3,0.4-2.3,1.3-3c0.7-0.6,1.5-0.9,2.5-0.9h1.4v1c0,0.8-0.4,1.2-1.1,1.2h-0.3
			c-0.4,0-0.7,0.1-1,0.4c-0.3,0.3-0.5,0.7-0.5,1.3V15h-1c-0.8,0-1.2-0.4-1.2-1.2V7.8z"/>
		<path class="st1" d="M163.7,1.2c0-0.8,0.4-1.2,1.2-1.2h1v8.5h0.8c0.4,0,0.8,0,1.1-0.4l2.1-3.4c0.3-0.5,0.8-0.8,1.3-0.8h1.7
			l-2.6,4.3c-0.2,0.2-0.3,0.5-0.4,0.6c0.7,0.3,1.3,0.9,1.6,1.8l1.9,4.3H172c-0.7,0-1.1-0.2-1.3-0.7l-1.2-2.7
			c-0.2-0.5-0.7-0.8-1.2-0.8h-2.4V15h-1c-0.8,0-1.2-0.4-1.2-1.2L163.7,1.2L163.7,1.2z"/>
		<path class="st1" d="M182.4,4.2c0.5,0.3,1,0.7,1.4,1.2c0.4,0.6,0.6,1.2,0.6,1.9c0,0.6-0.1,1.1-0.4,1.6c-0.2,0.4-0.5,0.8-0.9,1
			c-0.4,0.3-0.8,0.5-1.3,0.6c-0.4,0.1-0.9,0.2-1.4,0.2h-2.6c-0.2,0-0.3,0-0.4,0c-0.2,0-0.3-0.1-0.3-0.2v0.9c0,0.5,0.3,0.9,0.8,1.2
			c0.4,0.3,0.9,0.4,1.5,0.4c0.5,0.1,1,0,1.6-0.1c0.4-0.1,0.7-0.2,1-0.5c0.1-0.1,0.2-0.2,0.3-0.3c0.3-0.4,0.8-0.5,1.3-0.2l1.1,0.5
			c-0.2,0.5-0.5,0.9-0.8,1.2c-0.5,0.5-1.1,0.9-1.9,1.1c-0.7,0.2-1.4,0.3-2.1,0.3c-0.7,0-1.2-0.1-1.7-0.2c-0.6-0.2-1.1-0.4-1.6-0.7
			c-0.5-0.4-1-0.8-1.2-1.5c-0.3-0.6-0.4-1.2-0.4-1.9V7.5c0-0.5,0.1-1.1,0.4-1.6c0.4-0.8,1-1.4,1.8-1.8c0.8-0.4,1.6-0.5,2.6-0.5
			C180.5,3.6,181.5,3.7,182.4,4.2z M181.6,8.3c0.3-0.2,0.5-0.5,0.6-0.9c0-0.4-0.1-0.8-0.4-1c-0.4-0.3-1.1-0.5-1.6-0.5
			c-0.6,0-1.2,0-1.7,0.1c-0.5,0.1-0.8,0.3-1.1,0.5c-0.3,0.3-0.5,0.6-0.5,1v1h3.6C181,8.5,181.3,8.4,181.6,8.3z"/>
		<path class="st1" d="M191.3,4v1c0,0.8-0.4,1.2-1.2,1.2h-1.4v5.3c0,0.6,0.2,1,0.5,1.3c0.3,0.2,0.6,0.4,1,0.4v1
			c0,0.5-0.2,0.8-0.7,0.9c-0.4,0.1-0.7,0.1-1.1-0.1c-0.6-0.3-1.1-0.7-1.4-1.2c-0.4-0.6-0.6-1.3-0.6-2.2V1.2c0-0.8,0.4-1.2,1.2-1.2h1
			v4H191.3z"/>
		<path class="st1" d="M194.3,0h1v1c0,0.8-0.4,1.2-1.2,1.2h-1v-1C193.1,0.4,193.5,0,194.3,0z M193.1,5.1c0-0.8,0.4-1.2,1.2-1.2h1v11
			h-1c-0.8,0-1.2-0.4-1.2-1.2V5.1z"/>
		<path class="st1" d="M199.5,4.8c1-0.8,2.1-1.2,3.5-1.2c1.3,0,2.5,0.4,3.5,1.2c1,0.9,1.5,1.9,1.5,3.1v7h-1c-0.8,0-1.2-0.4-1.2-1.2
			V8c0-0.6-0.3-1.1-0.8-1.5c-0.6-0.5-1.3-0.7-2.1-0.7c-0.8,0-1.5,0.2-2.1,0.7c-0.5,0.4-0.8,0.9-0.8,1.5v7h-1c-0.8,0-1.2-0.4-1.2-1.2
			V8C198,6.8,198.5,5.7,199.5,4.8z"/>
		<path class="st1" d="M219.1,4.9c1.1,0.9,1.6,2,1.6,3.3v6.7c0,0.7-0.1,1.3-0.4,1.8c-0.5,1.1-1.6,1.8-2.8,2.1
			c-0.6,0.2-1.2,0.3-1.9,0.3c-0.6,0-1.2-0.1-1.7-0.2c-0.5-0.1-0.8-0.3-1-0.6c-0.1-0.2-0.2-0.5,0-0.9l0.2-0.9
			c0.5,0.2,1.1,0.3,1.9,0.4c0.7,0,1.4-0.1,1.9-0.2c1.1-0.3,1.6-0.9,1.6-1.9v-0.4c-0.9,0.6-1.9,0.9-3.1,0.9c-1.4,0-2.6-0.4-3.6-1.3
			c-1.1-0.9-1.6-2-1.6-3.3V8.2c0-1.3,0.5-2.4,1.6-3.3c1-0.8,2.2-1.3,3.6-1.3C216.9,3.6,218.1,4,219.1,4.9z M215.5,5.8
			c-0.9,0-1.6,0.3-2.3,0.8c-0.5,0.5-0.8,1-0.8,1.6v2.6c0,0.6,0.3,1.2,0.8,1.6c0.6,0.5,1.4,0.8,2.3,0.8s1.6-0.3,2.3-0.8
			c0.5-0.5,0.8-1,0.8-1.6V8.2c0-0.6-0.3-1.2-0.8-1.6C217.1,6.1,216.4,5.8,215.5,5.8z"/>
		<path class="st1" d="M224.6,12.5h1v1.3c0,0.8-0.4,1.2-1.2,1.2h-1v-1.3C223.4,12.9,223.8,12.5,224.6,12.5z"/>
		<path class="st1" d="M228,8c0-1.2,0.5-2.3,1.6-3.1c1-0.8,2.1-1.2,3.5-1.2c1.3,0,2.5,0.4,3.5,1.2c0.6,0.5,1,1.1,1.3,1.7l-1,0.5
			c-0.6,0.3-1,0.2-1.4-0.3c-0.1-0.2-0.2-0.2-0.3-0.3c-0.6-0.5-1.3-0.7-2.1-0.7c-0.8,0-1.5,0.2-2.1,0.7c-0.5,0.4-0.8,0.9-0.8,1.5v3
			c0,0.6,0.3,1.1,0.8,1.5c0.6,0.5,1.3,0.7,2.1,0.7c0.8,0,1.5-0.2,2.1-0.7c0.1-0.1,0.2-0.2,0.3-0.3c0.4-0.5,0.9-0.5,1.4-0.3l1,0.5
			c-0.3,0.7-0.7,1.2-1.3,1.7c-1,0.8-2.1,1.2-3.5,1.2c-1.4,0-2.5-0.4-3.5-1.2c-1-0.8-1.6-1.9-1.6-3.1V8z"/>
		<path class="st1" d="M248.3,4.9c1.1,0.9,1.6,2,1.6,3.3v2.6c0,1.3-0.5,2.4-1.6,3.3c-1,0.8-2.2,1.3-3.6,1.3c-1.4,0-2.6-0.4-3.6-1.3
			c-1.1-0.9-1.6-2-1.6-3.3V8.2c0-1.3,0.5-2.4,1.6-3.3c1-0.8,2.2-1.3,3.6-1.3C246.1,3.6,247.3,4,248.3,4.9z M244.7,5.8
			c-0.9,0-1.6,0.3-2.3,0.8c-0.5,0.5-0.8,1-0.8,1.6v2.6c0,0.6,0.3,1.2,0.8,1.6c0.6,0.5,1.4,0.8,2.3,0.8c0.9,0,1.6-0.3,2.3-0.8
			c0.5-0.5,0.8-1,0.8-1.6V8.2c0-0.6-0.3-1.2-0.8-1.6C246.3,6.1,245.6,5.8,244.7,5.8z"/>
		<path class="st1" d="M264.8,6.4c-0.4-0.4-0.9-0.6-1.7-0.6c-0.7,0-1.2,0.2-1.6,0.6c-0.4,0.5-0.6,1-0.6,1.8V15h-1
			c-0.8,0-1.2-0.4-1.2-1.2V8.2c0-0.7-0.2-1.3-0.6-1.8c-0.4-0.4-0.9-0.6-1.6-0.6c-0.8,0-1.3,0.2-1.7,0.6c-0.4,0.4-0.6,1-0.6,1.8V15
			h-1c-0.8,0-1.2-0.4-1.2-1.2V8.2c0-1.4,0.4-2.5,1.2-3.3c0.8-0.8,1.9-1.3,3.3-1.3c1.2,0,2.1,0.3,2.9,1c0.1,0.1,0.2,0.2,0.4,0.4
			c0.2-0.2,0.3-0.3,0.4-0.4c0.8-0.7,1.7-1,2.9-1c1.4,0,2.5,0.4,3.3,1.3c0.8,0.8,1.2,1.9,1.2,3.3V15h-1c-0.8,0-1.2-0.4-1.2-1.2V8.2
			C265.4,7.4,265.2,6.8,264.8,6.4z"/>
	</g>
	<g>
		<path class="st1" d="M4.3,8.1c0-0.9-0.1-1.9-1.2-1.9c-0.7,0-1.1,0.3-1.1,1c0,0.8,0.5,1.1,1.1,1.5C3.8,9.1,5,9.9,5.6,10.5
			c0.7,0.7,0.9,1.3,0.9,2.2c0,2-1.3,3-3.3,3c-2.4,0-3.2-1.3-3.2-3.2v-0.8h2v0.6c0,1,0.3,1.8,1.2,1.8c0.8,0,1.2-0.4,1.2-1.2
			c0-0.6-0.3-1-0.8-1.4c-1-0.8-2.3-1.4-3.1-2.4C0.2,8.6,0,8,0,7.4c0-1.8,1-2.8,3.1-2.8c3.1,0,3.1,2.4,3.1,3.5H4.3z"/>
		<path class="st1" d="M8.7,15.5V4.9h2v10.6H8.7z"/>
		<path class="st1" d="M12.4,4.9H19v1.6h-2.3v9h-2v-9h-2.3L12.4,4.9L12.4,4.9z"/>
		<path class="st1" d="M20.7,15.5V4.9h5.6v1.6h-3.6v2.7H26v1.6h-3.3v3.3h3.6v1.6H20.7z"/>
		<path class="st1" d="M32.5,15.5V4.9h3.2c0.8,0,1.7,0.1,2.2,0.8c0.5,0.6,0.5,1.2,0.5,1.9c0,0.9-0.2,1.8-1.3,2.2v0
			c1.1,0.2,1.5,1.1,1.5,2.5c0,0.4,0,0.9-0.1,1.3c-0.4,1.3-1.2,1.9-2.6,1.9L32.5,15.5L32.5,15.5z M34.8,9.2c0.5,0,1.1,0,1.4-0.4
			c0.2-0.3,0.2-0.6,0.2-1.1c0-0.8-0.2-1.2-1.1-1.2h-0.9v2.7H34.8z M34.9,13.9c0.4,0,0.8,0,1.2-0.1c0.5-0.2,0.6-0.9,0.6-1.5
			c0-1.1-0.2-1.6-1.5-1.6h-0.8v3.2L34.9,13.9L34.9,13.9z"/>
		<path class="st1" d="M43.4,7.7c0.2,0.5,0.4,1.1,0.5,1.6h0c0.1-0.8,0.4-1.4,0.6-2l0.9-2.4h2.2L44.8,11v4.5h-2V11l-2.8-6.1h2.2
			L43.4,7.7z"/>
	</g>
</g>
</svg>
