<?xml version="1.0" encoding="utf-8"?>
<!-- Generator: Adobe Illustrator 23.0.3, SVG Export Plug-In . SVG Version: 6.00 Build 0)  -->
<svg version="1.1" id="Calque_1" xmlns="http://www.w3.org/2000/svg" xmlns:xlink="http://www.w3.org/1999/xlink" x="0px" y="0px"
	 width="94.1px" height="77px" viewBox="0 0 94.1 77" style="enable-background:new 0 0 94.1 77;" xml:space="preserve">
<style type="text/css">
	.st0{fill:#FDD334;}
	.st1{fill-rule:evenodd;clip-rule:evenodd;fill:#FFFFFF;}
	.st2{fill-rule:evenodd;clip-rule:evenodd;fill:#D8E5EF;}
	.st3{fill:#FFFFFF;}
	.st4{fill:#EBEBEB;}
	.st5{fill:#D8E5EF;}
	.st6{fill:#F9FAFA;}
	.st7{fill:#0C183D;}
	.st8{fill-rule:evenodd;clip-rule:evenodd;fill:#545960;}
	.st9{fill-rule:evenodd;clip-rule:evenodd;fill:#7B7B7B;}
	.st10{fill:#BB2025;}
</style>
<g>
	<path class="st6" d="M51.9,46.2c0-4.9,0-9.8,0-14.6c0-1-0.2-1.8-1.1-2.4c-2.2-1.4-4.4,0.2-4.8,2c0,0.2-0.1,0.4,0,0.7
		c0.1-0.3,0.2-0.6,0.4-0.9c0.5-0.7,1.4-0.6,1.8,0.1c0.2,0.3,0.2,0.7,0.2,1.1c0,1.1,0,2.2,0,3.4c0,0.3,0.1,0.6,0,0.9
		c-0.1,0.3-0.6,0.1-0.8,0.2C45.8,37,45,38.5,45.7,40c0.3,0.7,0.9,1.1,1.6,1c-0.5-0.4-0.6-0.7-0.4-1.1c0.3-0.4,0.7-0.5,1.1-0.5
		c0.3,0,0.4,0.1,0.4,0.4c0,2.2,0,4.5,0,6.7c0,0.2-0.1,0.3-0.3,0.4c-0.9,0.4-1.6,1-1.9,1.9c-0.7,2,0.9,4.2,3.1,4.3
		c1.4,0,2.8-0.2,4.1-0.5c1.1-0.2,2.2-0.5,3.3-0.5c1,0,1.4,0.8,0.9,1.6c-0.1,0.3-0.4,0.5-0.6,0.7c1.1-0.2,2-0.6,2.5-1.6
		c0.7-1.4,0.5-2.8-1-3.6c-0.8-0.5-1.7-0.5-2.5-0.5c-1.7,0.1-3.3,0.6-5,0.8c-0.8,0.1-1.6,0.3-2.4,0.1c-0.7-0.2-1.1-0.8-1-1.5
		c0.1-0.7,0.7-1.1,1.6-1.3c1.2-0.2,2.5,0,3.7,0.2c1.2,0.2,2.3,0.7,3.5,0.8c1.1,0.1,2.2,0,2.9-1c0.5-0.6,0.5-1.4,0.5-2.2
		c0-4.4,0-8.8,0-13.2c0-0.4,0.1-0.7,0.4-0.9c0.2-0.1,0.4-0.3,0.6-0.5c0,0,0.2-0.1,0.1-0.2c-0.1-0.1-0.2,0-0.3,0
		c-0.3,0.2-0.5,0.4-0.8,0.7c-0.2,0.1-0.3,0.1-0.4,0c-0.7-0.6-1.3-1.2-2-1.8c-0.2-0.2-0.3-0.2-0.5,0c-1,0.8-2,1.6-3,2.4
		c0-0.2,0-0.4,0-0.5c0-0.6,0-1.1,0-1.7c0-0.1,0.1-0.2-0.1-0.2c-0.1,0-0.1,0.1-0.1,0.2c0,0.1,0,0.1,0,0.2c0,3.6,0,7.3,0,10.9
		c0,2.2,0,4.4,0,6.7c0,0.2,0,0.4-0.3,0.3c-0.4-0.1-0.8-0.2-1.1-0.2C51.9,46.7,51.9,46.5,51.9,46.2z M54,31.8c0-0.3,0.5-0.9,0.7-0.9
		c0.1,0,0.1,0.1,0.2,0.1c0.2,0.2,0.4,0.4,0.6,0.5c0.8,0.4,0.9,1.1,0.8,1.9c-0.1,0.9,0,1.8,0,2.8c0,0.7-0.5,1.1-1.2,1.1
		c-0.4,0-0.7-0.2-1-0.5C54,36.7,54,36.6,54,36.4c0-0.8,0-1.6,0-2.4c0,0,0,0,0,0C54,33.3,54,32.6,54,31.8z M56.3,37.1
		c0,0.7,0,1.3,0,2c-0.8-0.5-1.5-0.6-2.3,0.1c0-0.7,0-1.4,0-2.1C54.8,37.7,55.5,37.7,56.3,37.1z M54,43.3C54,43.3,54,43.3,54,43.3
		c0-1.1,0-2.1,0-3.2c0-0.7,0.5-1.2,1.2-1.1c0.7,0,1.1,0.4,1.1,1.1c0,1.7,0,3.4,0,5.1c0,1.1-0.9,2-2,1.8c-0.2,0-0.3-0.1-0.3-0.4
		C54,45.6,54,44.5,54,43.3z"/>
	<path class="st6" d="M32.2,5.4c-0.4-0.2-0.6,0-0.8,0.1c-5.7,2.3-6.8,8.7-3.5,12.6c2.6,3.1,7.6,3.7,10.8,0.4
		c1.4-1.4,1.9-3.2,1.8-5.1c-0.7,1.4-1.6,2.5-2.9,3.5c0-1.6,0-3.1,0-4.6c0-0.2,0.1-0.3,0.2-0.4c0.5-0.4,1-0.8,1.5-1.2
		c-0.5-0.4-1-0.8-1.5-1.2c-0.2-0.1-0.3-0.3-0.2-0.5c0-0.8,0-1.6,0-2.4c0-0.3-0.1-0.6,0.1-0.8c0.1-0.1,0.5-0.1,0.7-0.1
		c1.4-0.3,2.3-1.4,2.5-2.9C41,1.6,40.3,0.7,39,0.2c-0.6-0.2-1.3-0.3-2-0.1c0.3,0.1,0.5,0.1,0.7,0.1c0.2,0,0.4,0.1,0.6,0.2
		c0.4,0.2,0.7,0.6,0.7,1c0,0.4-0.4,0.7-0.8,0.9c-0.5,0.1-0.9,0-1.3-0.1c-1.7-0.4-3.3-1-4.9-1.5c-1.3-0.3-2.5-0.2-3.6,0.4
		c-1.3,0.8-1.9,2.6-1.3,4c0.3,0.6,0.6,1.1,1.4,1.2c0,0,0-0.1-0.1-0.1c-0.7-0.9-0.3-2,0.8-2.3c0.4-0.1,0.8,0,1.1,0.1
		c2.3,0.5,4.6,1.3,7,1.7c0.2,0,0.2,0.2,0.2,0.3c0,1,0,2,0,2.9c0,0.2-0.1,0.4-0.2,0.5c-0.4,0.3-0.9,0.7-1.3,1c-0.2,0.1-0.2,0.2,0,0.3
		c0.4,0.3,0.8,0.7,1.3,1c0.2,0.1,0.3,0.3,0.3,0.5c0,1.4,0,2.8,0,4.3c0,0.3-0.1,0.4-0.3,0.5c-1.2,0.6-2.4,0.8-3.7,0.4
		c-1.1-0.3-2-0.9-2.8-1.8c1.4-0.7,2.7-1.4,4.1-2c0.2-0.1,0.3-0.2,0.3-0.5c0-1.9,0-3.8,0-5.6c0-0.5,0-1.1,0-1.7
		c-1.8,0.8-3.6,1.6-5.4,2.4C30.1,7.1,30.9,6.2,32.2,5.4z M29.8,8.7c0.6-0.2,1.2-0.5,1.8-0.8c0,1.2,0,2.3,0,3.4c0,1.2,0,2.4,0,3.5
		c0,0.3-0.1,0.5-0.4,0.6c-0.9,0.4-0.8,0.4-1.3-0.4c-1-1.8-1.2-3.7-0.6-5.7C29.3,8.9,29.5,8.8,29.8,8.7z"/>
	<path class="st6" d="M30.1,72.5c0-1.5,0-3,0-4.6c0-0.2,0.1-0.3,0.2-0.4c0.4-0.4,0.9-0.7,1.3-1.1c0.2-0.1,0.2-0.2,0-0.3
		c-0.5-0.4-0.9-0.7-1.4-1.1c-0.1-0.1-0.2-0.2-0.2-0.3c0-1,0-2.1,0-3.1c0-0.2,0-0.2,0.2-0.2c0.4,0,0.7-0.1,1.1-0.2
		c1.2-0.4,1.9-1.5,2-2.8c0-1.2-0.5-2-1.7-2.5c-0.7-0.3-1.4-0.4-2.2-0.2c0.6,0.1,1.1,0.1,1.5,0.4c0.3,0.2,0.6,0.5,0.5,1
		c-0.1,0.4-0.4,0.6-0.7,0.8c-0.5,0.2-0.9,0.1-1.4,0c-1.4-0.3-2.7-0.8-4.1-1.2c-1-0.3-2-0.6-3.1-0.4c-1.9,0.4-3.1,1.9-2.9,3.8
		c0.1,1,0.7,1.8,1.5,2c0,0,0,0,0,0c-0.5-0.6-0.6-1.1-0.2-1.8c0.4-0.6,1-0.7,1.6-0.6c0.1,0,0.3,0,0.4,0.1c2.3,0.6,4.6,1.3,6.9,1.7
		c0.2,0,0.2,0.1,0.2,0.3c0,1,0,2,0,3c0,0.2-0.1,0.3-0.2,0.4c-0.5,0.4-1,0.8-1.5,1.2c0.5,0.4,0.9,0.8,1.4,1.1
		c0.3,0.2,0.4,0.4,0.4,0.8c0,1.4,0,2.7,0,4.1c0,0.3-0.1,0.5-0.4,0.6c-2,1-4.6,0.6-6.2-1.1c-0.2-0.2-0.2-0.3,0.1-0.4
		c1.3-0.6,2.5-1.3,3.8-1.9c0.2-0.1,0.3-0.2,0.3-0.5c0-1.7,0-3.4,0-5.1c0-0.7,0-1.5,0-2.2c-1.8,0.8-3.6,1.6-5.4,2.4
		c0.6-1.4,1.4-2.4,2.7-3.1c-0.3-0.1-0.4-0.1-0.5,0c-3.5,1.2-6.3,4.8-5.5,9.1c0.9,5.1,6.6,8.1,11.4,5.2c1.8-1.1,2.7-2.9,3-5
		c0.1-0.4,0.1-0.8,0-1.2C32.1,70.9,30.9,72.2,30.1,72.5z M22.6,70.9c-1.2-1.9-1.5-3.9-0.9-6.1c0.1-0.3,0.2-0.5,0.6-0.6
		c0.6-0.2,1.2-0.5,1.8-0.8c0,0.9,0,1.7,0,2.5c0,1.5,0,3,0,4.5c0,0.3-0.1,0.4-0.3,0.5c-0.2,0-0.3,0.1-0.4,0.2
		C23,71.4,22.8,71.3,22.6,70.9z"/>
	<path class="st6" d="M16.4,29.9c0.2-0.7,0.2-1.4-0.1-2.1c-0.5,1.9-2.4,2-3.8,0.6c-0.4,0.4-0.8,0.9-1.1,1.3
		c-0.6,0.7-1.3,1.4-1.9,2.1c-0.1,0.1-0.2,0.2-0.1,0.3c0.1,0.1,0.2,0,0.2-0.1c0.2-0.2,0.4-0.4,0.6-0.6c0.1-0.2,0.2-0.2,0.4,0
		c0.6,0.5,1.3,0.9,2.2,0.9c0.3,0,0.4,0.1,0.4,0.4c0,2.5,0,4.9,0,7.4c0,0.3,0,0.5,0,0.9c-0.1-0.2-0.1-0.2-0.2-0.2
		c-1.5-2.6-2.9-5.3-4.4-7.9c-0.6-1.1-1.1-2.1-1.8-3.2c-0.7-1.2-2-1.7-3.1-1.3c-1.7,0.5-2.4,2.1-2.1,3.9c0,0,0,0,0.1,0
		c0.1-0.3,0.2-0.6,0.3-0.9c0.3-0.5,0.8-0.6,1.3-0.4c0.6,0.4,1.1,0.9,1.1,1.6c0,0.6,0,1.2,0,1.8c0,0.3,0.1,0.6,0,0.8
		c-0.1,0.2-0.5,0.1-0.8,0.2c-0.1,0-0.2,0-0.4,0.1c-2.1,0.5-2.5,2.6-1.2,4.1c0.3,0.4,0.7,0.6,1.2,0.6c-0.1-0.2-0.2-0.3-0.3-0.5
		c-0.2-0.3-0.1-0.6,0.2-0.9c0.3-0.3,0.7-0.3,1.1-0.3c0.2,0,0.3,0.1,0.3,0.3c0,1.4,0,2.7,0,4.1c0,0.2-0.1,0.2-0.3,0.3
		c-0.5,0-0.9,0.1-1.4,0.2c-1.4,0.4-2.4,1.6-2.5,2.9c-0.2,2,1.4,3.5,3.6,3.3c-0.3-0.1-0.6-0.3-0.9-0.4C2,48.8,1.7,48.1,2,47.5
		c0.3-0.7,1-1.1,1.7-0.9c0.7,0.1,1.2,0.4,1.7,0.9c0.1,0.2,0.2,0.2,0.4,0C6.1,47,6.5,46.5,7,46.1c0.5-0.6,1-1.1,1.5-1.7
		c0.1-0.1,0.3-0.2,0.2-0.3c-0.2-0.2-0.2,0.1-0.3,0.2c-0.2,0.1-0.3,0.3-0.4,0.5c-0.1,0.1-0.2,0.2-0.4,0c-0.8-0.8-1.7-1.3-2.8-1.5
		c-0.3-0.1-0.4-0.2-0.4-0.5c0-3.1,0-6.3,0-9.4c0-0.2,0-0.4,0-0.8c0.1,0.1,0.1,0.2,0.1,0.2c1,1.8,1.9,3.5,2.9,5.3
		c1.7,3.1,3.4,6.2,5.1,9.3c0.1,0.3,0.3,0.4,0.6,0.3c0.3-0.1,0.2-0.3,0.2-0.5c0-4.8,0-9.7,0-14.5c0-0.3,0-0.4,0.4-0.4
		C15,32,16,31.2,16.4,29.9z"/>
	<path class="st6" d="M25,37c0.7,0.5,1,1.2,1,2.1c0,1.6-0.1,3.2,0,4.8c0,0.9-0.1,1.5-1,1.9c0,0-0.1,0-0.1,0.1
		c-0.1,0.1-0.2,0.1-0.1,0.2c0.1,0.1,0.1,0,0.2,0c0.2-0.2,0.5-0.3,0.7-0.5c0.2-0.2,0.3-0.2,0.5,0c0.7,0.6,1.4,1.2,2.1,1.8
		c0.2,0.1,0.3,0.1,0.4,0c0.8-0.6,1.6-1.3,2.4-1.9c0.2-0.2,0.3-0.1,0.5,0c0.8,0.6,1.6,1.3,2.4,1.9c0.2,0.1,0.3,0.2,0.5,0
		c1.7-1.1,3.4-2.1,5.1-3.2c0.2-0.1,0.3-0.3,0.3-0.5c0-2,0-3.9,0-5.9c0-0.2,0.1-0.4,0.3-0.5c0.6-0.5,1.2-1,1.8-1.6
		c0.1-0.1,0.2-0.1,0.1-0.3c-0.1-0.1-0.2,0-0.2,0.1c-0.2,0.2-0.4,0.3-0.6,0.5c-0.2,0.2-0.3,0.2-0.5,0c-0.7-0.6-1.3-1.1-2-1.7
		c-0.2-0.1-0.2-0.1-0.4,0c-0.6,0.6-1.2,1.1-1.9,1.7c-0.6,0.5-0.6,0.6,0,1.1c0.3,0.3,0.5,0.6,0.4,1c0,0.6,0,1.2,0,1.7
		c0,1.8,0,3.6,0,5.4c0,0.2-0.1,0.3-0.3,0.4c-0.2,0.1-0.3-0.1-0.4-0.2c-0.6-0.4-1.1-0.9-1.7-1.4c-0.2-0.2-0.3-0.4-0.3-0.7
		c0-1.6,0-3.3,0-4.9c0-0.8,0-1.6,0.8-2.1c0.2-0.1,0.1-0.2,0-0.3c-0.7-0.6-1.4-1.2-2-1.8c-0.2-0.1-0.2-0.1-0.4,0
		c-0.6,0.6-1.2,1.1-1.9,1.6c-0.6,0.5-0.6,0.5,0,1.1c0.3,0.3,0.5,0.6,0.4,1c0,2.2,0,4.4,0,6.5c0,0.1,0,0.1,0,0.2
		c0,0.3-0.2,0.3-0.4,0.5c-0.2,0.1-0.2-0.1-0.3-0.1c-0.5-0.4-0.9-0.7-1.4-1.1C29.1,44.1,29,44,29,43.7c0-2.1,0-4.3,0-6.4
		c0-0.7-0.3-1.3-0.8-1.7c-0.4-0.3-0.8-0.6-1.3-0.9c-1.2-0.9-1.3-1.7-0.1-2.7c-0.6,0-1.1,0.2-1.6,0.5c-0.8,0.6-1.5,1.3-1.4,2.5
		C23.8,35.9,24.3,36.5,25,37z"/>
	<path class="st6" d="M57.4,73.1c-0.1,0.1-0.2,0.2-0.3,0.2c-0.2,0.2-0.3,0.2-0.5,0c-0.2-0.3-0.5-0.5-0.7-0.8
		c-0.2-0.2-0.3-0.4-0.3-0.7c0-1.7,0.1-3.3,0-5c0-0.9,0.1-1.5,0.9-1.9c0,0,0.1-0.1,0.1-0.1c0.1-0.1,0.2-0.1,0.1-0.2
		c-0.1-0.1-0.2,0-0.2,0c-0.3,0.2-0.5,0.4-0.8,0.6c-0.2,0.1-0.3,0.1-0.4,0c-0.6-0.7-1.2-1.3-1.7-2c-0.3-0.3-0.4-0.2-0.6,0
		c-0.8,0.7-1.7,1.3-2.5,2c-0.2,0.2-0.3,0.1-0.5,0c-0.6-0.6-1.2-1.3-1.7-1.9c-0.2-0.2-0.3-0.3-0.5-0.1c-0.8,0.7-1.6,1.3-2.4,1.9
		c-0.3,0.2-0.4,0.2-0.7-0.1c-0.6-0.6-1.2-1.2-1.7-1.9c-0.1-0.2-0.2-0.2-0.4,0c-0.8,0.7-1.6,1.4-2.4,2.1c-0.2,0.1-0.3,0.3-0.5,0.4
		c-0.1,0.1-0.2,0.1-0.1,0.2c0.1,0.2,0.2,0,0.3-0.1c0.2-0.2,0.4-0.3,0.6-0.5c0.1-0.1,0.2-0.1,0.3,0c0.4,0.4,0.7,0.8,1.1,1.2
		c0.2,0.2,0.2,0.3,0.2,0.6c0,1.6,0,3.2,0,4.8c0,0.5,0,0.9-0.5,1.2c-0.2,0.1-0.2,0.3,0,0.5c0.7,0.7,1.3,1.5,2,2.2
		c0.2,0.2,0.3,0.1,0.4,0c0.5-0.5,1.1-1.1,1.6-1.6c0.6-0.6,0.6-0.6,0-1.2c-0.3-0.3-0.4-0.6-0.4-1c0-1,0-2,0-2.9c0-0.1,0-0.2,0-0.3
		c0-1,0-2,0-2.9c0-0.4,0.3-0.5,0.5-0.6c0.2-0.1,0.3,0.2,0.4,0.3c0.4,0.4,0.8,0.9,1.1,1.3c0.2,0.2,0.2,0.4,0.2,0.6c0,1.6,0,3.2,0,4.8
		c0,0.4-0.1,0.8-0.4,1c-0.2,0.1-0.2,0.2,0,0.4c0.6,0.7,1.3,1.4,1.9,2.1c0.1,0.1,0.2,0.2,0.3,0c0.7-0.7,1.4-1.4,2.1-2.1
		c0.1-0.1,0.1-0.2,0-0.3c-0.1-0.1-0.2-0.3-0.4-0.4c-0.3-0.2-0.4-0.5-0.4-0.9c0-1.2,0-2.4,0-3.6c0-0.9,0-1.8,0-2.6
		c0-0.4,0.3-0.5,0.6-0.7c0.2-0.1,0.3,0.2,0.4,0.3c0.4,0.4,0.7,0.8,1.1,1.2c0.2,0.2,0.3,0.5,0.3,0.8c0,1.6,0,3.1,0,4.7
		c0,0.4-0.1,0.7-0.4,1c-0.2,0.1-0.2,0.2,0,0.4c0.6,0.6,1.1,1.2,1.7,1.8c0.6,0.7,0.6,0.7,1.3,0.1c0.8-0.7,1.6-1.4,2.4-2.2
		c0.1-0.1,0.3-0.1,0.2-0.3C57.6,72.8,57.5,73.1,57.4,73.1z"/>
	<path class="st6" d="M41.5,18.6c0.2-0.2,0.4-0.2,0.6,0c0.3,0.3,0.7,0.6,1,0.9c0.3,0.3,0.6,0.7,0.9,0.7c0.4,0.1,0.6-0.4,1-0.7
		c0.8-0.6,1.6-1.2,2.3-1.9c0.1-0.1,0.2-0.1,0.1-0.2c-0.1-0.1-0.2,0-0.2,0.1c-0.2,0.1-0.3,0.2-0.4,0.3c-0.1,0.1-0.1,0.2-0.2,0.1
		c-0.3-0.1-0.8-0.9-0.8-1.1c0-1.9,0-3.8,0-5.7c0-0.7,0.2-1.2,0.8-1.6c0,0,0,0,0,0c0.1-0.1,0.2-0.2,0.4,0c0.4,0.5,0.8,1,1.2,1.5
		c0.1,0.1,0.1,0.2,0.1,0.3c0,2.7,0.1,5.4-0.1,8c-0.1,0.9-0.3,1.8-1,2.6c-0.5,0.5-1.1,0.9-1.7,1.1c0.2,0,0.3,0.1,0.5,0.1
		c1.5,0.1,3.8-0.6,4.8-2.6c0.5-1,0.5-2,0.5-3.1c0-2.1,0.1-4.2,0-6.3c0-0.8,0.1-1.3,0.8-1.7c0,0,0.1-0.1,0.1-0.1
		c0.1-0.1,0.1-0.1,0.1-0.2c-0.1-0.1-0.1,0-0.2,0c-0.2,0.2-0.5,0.3-0.7,0.5c-0.2,0.2-0.3,0.1-0.4,0c-0.7-0.8-1.3-1.5-2-2.2
		c-0.2-0.2-0.3-0.2-0.4,0c-0.8,0.7-1.7,1.5-2.5,2.2c-0.1,0.1-0.1,0.2-0.3,0.1c0-2.9,0-5.8,0-8.8c-1.3,1-2.6,2-3.9,3
		c0.7,0.2,0.8,0.7,0.8,1.2c0,3.6,0,7.2,0,10.8c0,0.5,0.1,1-0.1,1.4c-0.2,0.4-0.7,0.6-1.1,0.9c-0.2,0.1-0.5,0.3-0.4,0.4
		C41.1,19,41.3,18.7,41.5,18.6z"/>
	<path class="st6" d="M62.3,43.5c0,0.7,0,1.4-0.7,1.7c0,0,0,0,0,0c0,0.1-0.2,0.1-0.1,0.2c0.1,0.1,0.2,0.1,0.2,0
		c0.1-0.1,0.3-0.3,0.5-0.4c0.2-0.2,0.3-0.2,0.5,0c0.9,0.8,1.8,1.5,2.7,2.3c0.1,0.1,0.2,0.1,0.2,0.2c0.1-0.1,0.2-0.1,0.2-0.1
		c1.6-1,3.3-1.9,4.9-2.8c0.2-0.1,0.3-0.3,0.3-0.6c0-1.9,0-3.7,0-5.6c0-0.7,0.1-1.2,0.7-1.6c0.1,0,0.1-0.1,0.1-0.1c0,0,0.1-0.1,0-0.2
		c-0.1-0.1-0.1-0.1-0.2,0c-0.2,0.2-0.4,0.4-0.6,0.6c-0.2,0.2-0.3,0.2-0.5,0c-1-0.9-1.9-1.7-2.9-2.5c-0.2-0.2-0.3-0.2-0.5,0
		c-1.5,0.9-3,1.8-4.6,2.5c-0.2,0.1-0.3,0.2-0.3,0.5C62.3,39.5,62.2,41.5,62.3,43.5z M65.3,42.3c0.1-2,0-3.9,0-5.9
		c0-0.1,0-0.3,0.1-0.4c0.9,0.8,1.7,1.6,2.5,2.3c0.1,0.1,0.1,0.2,0.1,0.3c0,2.4,0,4.7,0,7.1c0,0,0,0,0,0.1c-0.5-0.4-0.9-0.8-1.4-1.2
		c-0.2-0.1-0.3-0.3-0.4-0.4C65.5,43.8,65.3,43.2,65.3,42.3z"/>
	<path class="st6" d="M76.9,69c0-0.2-0.1-0.3-0.2-0.4c-0.5-0.4-1.1-0.9-1.6-1.3c-0.2-0.1-0.2-0.2,0-0.4c0.6-0.7,1.1-1.5,1.5-2.3
		c0.3-0.7,0.4-1.4,0-2.1c-0.1,0.9-0.3,1.2-1,1.5c-0.8,0.2-1.4-0.2-1.9-0.7c-0.2-0.2-0.3-0.2-0.5,0c-1.4,0.9-2.8,1.8-4.3,2.6
		c-0.2,0.1-0.2,0.2-0.2,0.4c0,0.9,0,1.9,0,2.8c0,0.2,0.1,0.4,0.2,0.5c0.5,0.4,0.9,0.9,1.4,1.3c0.3,0.2,0.2,0.3,0,0.5
		c-0.6,0.6-1.3,1.3-1.8,2.1c-0.5,0.8-0.5,1.7-0.1,2.5c0.4,0.8,1.3,1.4,2,1.3c-0.2-0.1-0.5-0.3-0.7-0.5c-0.4-0.5-0.3-1,0.2-1.3
		c0.3-0.1,0.5-0.2,0.8-0.1c0.5,0.1,0.9,0.4,1.3,0.8c0.2,0.2,0.3,0.2,0.5,0c1.4-1,2.8-1.8,4.2-2.6c0.2-0.1,0.2-0.2,0.2-0.4
		C76.9,71.6,76.9,70.3,76.9,69z M74.1,71.3c-0.1,0.9,0,1.9,0,2.8c0,0,0,0.1,0,0.2c-0.5-1.1-1.2-1.8-2.3-2.1c-1.1-0.3-2,0.2-2.8,0.9
		c0.2-0.4,0.4-0.7,0.7-0.9c0.3-0.3,0.5-0.6,0.8-0.9c0.7-0.7,1.5-1.4,2.2-2.1c0.2-0.2,0.3-0.2,0.6,0C73.9,69.8,74.2,70.4,74.1,71.3z
		 M73.2,68.4c-0.5,0.5-0.5,0.4-1.1,0c-0.5-0.4-0.7-0.8-0.7-1.4c0.1-0.8,0-1.6,0-2.6c0.2,0.2,0.3,0.4,0.4,0.5
		c1.1,1.3,2.2,1.5,3.7,0.6c0,0,0.1-0.1,0.1-0.1h0c0,0,0,0,0,0c0,0,0,0,0,0c0,0-0.1,0.1-0.1,0.1c0,0,0.1,0,0.1,0.1c0,0,0,0,0,0
		c0,0,0,0,0,0C75,66.7,74.1,67.6,73.2,68.4z"/>
	<path class="st6" d="M87.4,44.6c0,0-0.1,0.1-0.1,0.1c-0.6,0.5-0.5,0.5-1.1-0.1c-0.4-0.4-0.5-0.8-0.5-1.4c0-5,0-10.1,0-15.1
		c0-0.1,0.1-0.2-0.1-0.3c-1.3,0.9-2.7,1.9-4.1,2.9c0.7,0.1,0.9,0.5,1,1c0.1,0.3,0.1,0.6,0.1,1c0,3.9,0,7.8,0,11.7
		c0,0.3-0.1,0.4-0.3,0.6c-0.4,0.3-0.8,0.7-1.2,1c-0.1,0.1-0.1,0.1,0,0.2c0.1,0.1,0.1,0,0.2,0c0.2-0.1,0.3-0.2,0.5-0.4
		c0.2-0.2,0.4-0.3,0.6,0c0.6,0.6,1.2,1.1,1.8,1.7c0.1,0.1,0.2,0.1,0.4,0c0.6-0.6,1.3-1.1,1.9-1.7c0.4-0.3,0.7-0.6,1.1-0.9
		c0.1-0.1,0.2-0.1,0.1-0.2C87.5,44.4,87.5,44.5,87.4,44.6z"/>
	<path class="st6" d="M67.3,71.9c0,0-0.1,0.1-0.1,0.1c-0.8,0.6-1.6,1.3-2.4,1.9c-0.2,0.1-0.3,0.2-0.4,0c-0.6-0.6-1.3-1.2-1.9-1.8
		c-0.4-0.4-0.4-1,0.1-1.3c1.4-1.1,2.9-2.1,4.3-3.2c0.1-0.1,0.2-0.1,0.2-0.2c0-0.1-0.1-0.2-0.1-0.2c-0.7-1.3-1.4-2.5-2.2-3.8
		c-0.2-0.3-0.3-0.3-0.5-0.1c-1.6,1-3.1,1.9-4.8,2.7c-0.3,0.1-0.4,0.3-0.3,0.5c0,1.9,0,3.8,0,5.7c0,0.7-0.1,1.2-0.8,1.6
		c0,0-0.1,0.1-0.1,0.1c-0.1,0.1-0.1,0.1-0.1,0.2c0.1,0.1,0.2,0,0.2,0c0.2-0.2,0.4-0.3,0.6-0.5c0.2-0.2,0.3-0.1,0.4,0
		c0.9,0.8,1.7,1.6,2.6,2.3c0.2,0.2,0.3,0.2,0.6,0c0.9-0.7,1.8-1.4,2.7-2.1c0.7-0.6,1.5-1.2,2.2-1.8c0.1-0.1,0.2-0.1,0.1-0.2
		C67.4,71.7,67.4,71.8,67.3,71.9z M62.1,64.8c0.8,1.3,1.5,2.6,2.3,3.9c0.1,0.2,0,0.2-0.1,0.3c-0.7,0.5-1.5,1.1-2.2,1.6
		C62.1,68.7,62.1,66.7,62.1,64.8z"/>
	<path class="st6" d="M19.2,47.4c1.6-1.3,3.3-2.6,4.9-3.9c0.1-0.1,0.3-0.1,0.2-0.3c-0.1-0.2-0.2,0-0.3,0.1c-0.8,0.6-1.6,1.3-2.5,1.9
		c-0.2,0.2-0.3,0.2-0.5,0c-0.6-0.6-1.3-1.2-1.9-1.8c-0.4-0.4-0.4-1,0.1-1.3c1.4-1,2.9-2.1,4.3-3.1c0.1-0.1,0.3-0.1,0.1-0.4
		c-0.8-1.3-1.5-2.6-2.3-3.9c0-0.1-0.1-0.2-0.2-0.2c-0.1,0-0.1,0.1-0.2,0.1c-1.6,1-3.2,2-5,2.8c-0.2,0.1-0.3,0.3-0.3,0.5
		c0,2.1,0,4.1,0,6.2c0,0.4,0,0.6-0.4,0.8c-0.2,0.1-0.3,0.3-0.5,0.4c-0.1,0.1-0.2,0.1-0.1,0.2c0.1,0.1,0.2,0,0.2-0.1
		c0.2-0.1,0.4-0.3,0.6-0.5c0.2-0.2,0.3-0.1,0.5,0c0.9,0.8,1.7,1.6,2.6,2.4C19,47.5,19.1,47.5,19.2,47.4z M18.9,36.2
		c0.8,1.3,1.5,2.6,2.3,3.8c0.1,0.2,0.1,0.3-0.1,0.4c-0.7,0.5-1.4,1-2.2,1.6C18.9,40.1,18.9,38.1,18.9,36.2z"/>
	<path class="st6" d="M53.1,18.5c0.2-0.2,0.4-0.4,0.7-0.5c0.1,0,0.1-0.1,0.2-0.1c0.1,0.1,0.2,0.1,0.3,0.2c0.9,0.8,1.8,1.6,2.6,2.4
		c0.2,0.1,0.3,0.2,0.4,0c1.6-1.3,3.3-2.6,4.9-3.9c0.1-0.1,0.3-0.1,0.2-0.3c-0.1-0.1-0.2,0-0.3,0.1c-0.8,0.6-1.7,1.3-2.5,1.9
		c-0.2,0.1-0.3,0.2-0.4,0c-0.7-0.7-1.4-1.3-2.1-1.9c-0.3-0.3-0.2-0.9,0.1-1.1c1.4-1.1,2.9-2.1,4.3-3.2c0.3-0.2,0.3-0.3,0.1-0.6
		c-0.7-1.2-1.4-2.4-2.1-3.6c-0.2-0.3-0.3-0.3-0.5-0.1c-1.6,1-3.1,1.9-4.8,2.7c-0.2,0.1-0.3,0.2-0.3,0.5c0,2.1,0,4.2,0,6.3
		c0,0.3-0.1,0.5-0.3,0.6c-0.2,0.2-0.4,0.3-0.6,0.5c-0.1,0.1-0.1,0.1-0.1,0.2C52.9,18.6,53,18.5,53.1,18.5z M56.9,9.1
		c0.3,0.5,0.6,1,0.9,1.5c0.5,0.8,1,1.6,1.4,2.4c0.1,0.2,0.1,0.3-0.1,0.4c-0.7,0.5-1.4,1-2.2,1.6C56.9,13,56.9,11.1,56.9,9.1z"/>
	<path class="st6" d="M81.8,34.5c-1.1,0.8-1.4,0.8-2.4,0.2c-0.2-0.1-0.2,0-0.3,0.1c-0.5,0.6-1.1,1.1-1.6,1.7c-0.2,0.2-0.3,0.2-0.5,0
		c-0.5-0.6-0.9-1.1-1.4-1.7c-0.2-0.2-0.2-0.2-0.4,0c-0.5,0.5-1,0.9-1.4,1.3c-0.5,0.4-1,0.9-1.4,1.3c-0.1,0.1-0.2,0.1-0.1,0.3
		c0.1,0.1,0.2,0,0.2-0.1c0.2-0.1,0.3-0.3,0.5-0.4c0.2-0.2,0.4-0.3,0.5,0c0.2,0.3,0.4,0.5,0.6,0.8c0.1,0.2,0.2,0.4,0.2,0.6
		c0,1.9,0,3.9,0,5.8c0,0.2-0.1,0.3-0.2,0.5c-0.4,0.3-0.7,0.6-1,0.9c-0.1,0.1-0.2,0.1-0.1,0.3c0.1,0.1,0.2,0,0.3-0.1
		c0.2-0.2,0.4-0.3,0.5-0.5c0.2-0.2,0.3-0.2,0.5,0c0.7,0.6,1.4,1.3,2.1,1.9c0.1,0.1,0.2,0.2,0.4,0.1c1-0.9,2-1.7,3-2.5
		c0.1-0.1,0.2-0.1,0.1-0.2c-0.1-0.1-0.2,0-0.3,0.1c-0.3,0.2-0.6,0.7-0.9,0.6c-0.3-0.1-0.6-0.5-0.9-0.7c0,0,0,0,0,0
		c-0.2-0.2-0.3-0.4-0.3-0.7c0-2.2,0-4.4,0-6.5c0-0.1-0.1-0.3,0.1-0.4c0.1,0.1,0.2,0.2,0.2,0.3c1,0.9,2,0.9,3,0.1
		C81.5,36.6,81.8,35.6,81.8,34.5z"/>
	<path class="st6" d="M94.1,44.2c-0.1-0.1-0.1,0-0.2,0c-0.2,0.2-0.4,0.3-0.6,0.5c-0.2,0.2-0.3,0.2-0.5-0.1c-1-1.6-2.1-3.2-3.1-4.8
		c-0.6-0.9-1.1-1.7-1.7-2.6c-0.1-0.2-0.1-0.3,0-0.4c0.2-0.2,0.3,0,0.4,0.1c0.3,0.1,0.5,0.3,0.8,0.4c1.1,0.5,2.1,0.3,2.9-0.5
		c0.7-0.7,1-1.6,1.1-2.6c-1.3,1.1-2.3,1.1-3.3,0.2c-0.2-0.2-0.3-0.1-0.4,0.1c-1.1,1.6-2.3,3.3-3.4,4.9c-0.1,0.2-0.1,0.3,0,0.5
		c1.5,2.4,3,4.8,4.5,7.2c0.1,0.2,0.2,0.2,0.4,0c1-0.9,2-1.8,3-2.6c0.1-0.1,0.1-0.1,0.2-0.2C94.1,44.4,94.2,44.3,94.1,44.2z"/>
	<path class="st6" d="M40.2,73.3c-0.2,0.1-0.4,0.3-0.5,0.5c-0.2,0.2-0.3,0.1-0.4,0c-0.3-0.3-0.6-0.7-0.9-1c-0.2-0.2-0.2-0.3-0.2-0.5
		c0-1.7,0-3.4,0-5.1c0-0.8,0.1-1.4,0.8-1.8c0.1,0,0.1-0.1,0.2-0.1c0.1-0.1,0.2-0.1,0.1-0.2c-0.1-0.1-0.2,0-0.2,0
		c-0.2,0.2-0.4,0.3-0.6,0.5c-0.3,0.3-0.4,0.2-0.6-0.1c-0.6-0.7-1.2-1.4-1.8-2.1c-0.1-0.1-0.1-0.3-0.3-0.1c-0.9,0.8-1.9,1.6-2.8,2.5
		c-0.1,0.1-0.1,0.1,0,0.2c0.1,0.1,0.2,0,0.2-0.1c0.2-0.2,0.5-0.4,0.7-0.6c0.4,0.4,0.7,0.9,1.1,1.3c0.2,0.2,0.2,0.4,0.2,0.6
		c0,1.7,0,3.4,0,5.1c0,0.8-0.1,1.4-0.8,1.8c0,0,0,0,0,0c-0.1,0.1-0.1,0.1-0.1,0.2c0.1,0.1,0.2,0.1,0.2,0c0.2-0.2,0.4-0.3,0.6-0.5
		c0.2-0.2,0.3-0.1,0.4,0c0.6,0.7,1.2,1.4,1.7,2c0.1,0.1,0.1,0.3,0.3,0.1c0.9-0.8,1.9-1.7,2.8-2.5c0.1-0.1,0.2-0.1,0.1-0.2
		C40.4,73.1,40.3,73.2,40.2,73.3z"/>
	<path class="st6" d="M35.9,58.3c-0.7,0.6-1.4,1.3-2.1,1.9c-0.1,0.1-0.1,0.2,0,0.3c0.5,0.6,1.1,1.2,1.6,1.8c0.1,0.1,0.2,0.2,0.3,0
		c0.7-0.7,1.5-1.3,2.2-2c-0.6-0.6-1.1-1.3-1.7-1.9C36.1,58.3,36.1,58.1,35.9,58.3z"/>
	<path class="st6" d="M2.9,40.2C2.9,40.2,2.9,40.2,2.9,40.2C2.9,40.2,2.9,40.2,2.9,40.2C2.9,40.2,2.9,40.2,2.9,40.2
		C2.9,40.2,2.9,40.2,2.9,40.2C2.9,40.2,2.9,40.2,2.9,40.2z"/>
	<path class="st6" d="M2.9,40.2C3,40.2,3,40.2,2.9,40.2C3,40.2,3,40.2,2.9,40.2C2.9,40.2,2.9,40.2,2.9,40.2z"/>
	<path class="st6" d="M20.8,62.1C20.8,62.1,20.8,62,20.8,62.1C20.8,62,20.7,62,20.8,62.1C20.7,62.1,20.7,62.1,20.8,62.1z"/>
	<path class="st6" d="M28.3,6.5C28.3,6.5,28.3,6.4,28.3,6.5C28.3,6.4,28.3,6.5,28.3,6.5C28.3,6.5,28.3,6.5,28.3,6.5z"/>
	<path class="st6" d="M28.3,6.4C28.3,6.4,28.3,6.4,28.3,6.4L28.3,6.4C28.3,6.4,28.3,6.4,28.3,6.4C28.3,6.4,28.3,6.4,28.3,6.4
		C28.3,6.4,28.3,6.4,28.3,6.4z"/>
</g>
</svg>
