<?xml version="1.0" encoding="utf-8"?>
<!-- Generator: Adobe Illustrator 23.0.3, SVG Export Plug-In . SVG Version: 6.00 Build 0)  -->
<svg version="1.1" id="Calque_1" xmlns="http://www.w3.org/2000/svg" xmlns:xlink="http://www.w3.org/1999/xlink" x="0px" y="0px"
	 width="70.5px" height="29px" viewBox="0 0 70.5 29" style="enable-background:new 0 0 70.5 29;" xml:space="preserve">
<style type="text/css">
	.st0{fill:#FDD334;}
	.st1{fill-rule:evenodd;clip-rule:evenodd;fill:#FFFFFF;}
	.st2{fill-rule:evenodd;clip-rule:evenodd;fill:#D8E5EF;}
	.st3{fill:#FFFFFF;}
	.st4{fill:#EBEBEB;}
	.st5{fill:#D8E5EF;}
	.st6{fill:#F9FAFA;}
	.st7{fill:#0C183D;}
	.st8{fill-rule:evenodd;clip-rule:evenodd;fill:#545960;}
	.st9{fill-rule:evenodd;clip-rule:evenodd;fill:#7B7B7B;}
	.st10{fill:#BB2025;}
</style>
<g>
	<path class="st3" d="M35.8,5.6c-2.3,0-4.4,0.5-6.5,1.9c0-2.4,0-4.6,0-6.8c0-0.6-0.2-0.7-0.7-0.6c-1.3,0-2.7,0-4,0
		c-0.6,0-0.7,0.1-0.7,0.7c0.1,4.1,0,8.2,0.1,12.3c0,2-0.1,4,0.2,6c1,6.5,7.4,11,13.7,9.6c6.1-1.3,10-6.7,9.3-12.9
		C46.5,10.1,41.5,5.7,35.8,5.6z M35.7,23.6c-3.5,0-6.3-2.8-6.3-6.3c0-3.5,2.8-6.3,6.3-6.4c3.5,0,6.3,2.8,6.3,6.3
		C42.1,20.8,39.3,23.6,35.7,23.6z"/>
	<path class="st3" d="M22.9,15.7C22.4,9.3,16.1,4.6,9.8,5.6c-6.1,1-10.5,6.6-9.7,13c0.8,6.1,6.9,10.8,13.1,9.8
		c1.5-0.3,2.9-0.7,4.3-1.5c0,0.6,0,1,0,1.5c0,0.3,0.1,0.4,0.4,0.4c1.5,0,3,0,4.5,0c0.4,0,0.5-0.1,0.5-0.5c0-1.2,0-2.4,0-3.6
		C22.9,21.6,23.1,18.7,22.9,15.7z M11.4,23.2c-3.4,0-6.2-2.8-6.1-6.3c0-3.3,2.9-6.2,6.2-6.1c3.4,0,6.2,2.8,6.2,6.3
		C17.6,20.4,14.8,23.2,11.4,23.2z"/>
	<path class="st3" d="M57.5,11.5c2.7-0.8,5.7,0.3,7.2,2.7c0.4,0.6,0.3,1.5,1,1.7c0.7,0.2,1.4,0,2.2,0c0,0,0,0,0,0c0.7,0,1.4,0,2.1,0
		c0.4,0,0.5-0.1,0.4-0.5c-0.9-5.1-5.4-9-10.6-9.2c-7.5-0.2-13,6.4-11.5,13.7c1.1,5.4,6.1,9.1,11.6,8.8c5-0.3,9.3-3.8,10.4-8.5
		c0.1-0.5,0-0.6-0.4-0.6c-1.3,0-2.7,0.1-4,0.1c-0.5,0-0.7,0.2-0.9,0.6c-1.3,2.5-4.2,3.9-6.8,3.3c-2.9-0.6-5-3-5.1-5.9
		C52.9,14.9,54.7,12.4,57.5,11.5z"/>
</g>
</svg>
