<?xml version="1.0" encoding="utf-8"?>
<!-- Generator: Adobe Illustrator 23.0.3, SVG Export Plug-In . SVG Version: 6.00 Build 0)  -->
<svg version="1.1" id="Calque_1" xmlns="http://www.w3.org/2000/svg" xmlns:xlink="http://www.w3.org/1999/xlink" x="0px" y="0px"
	 width="68.5px" height="29.6px" viewBox="0 0 68.5 29.6" style="enable-background:new 0 0 68.5 29.6;" xml:space="preserve">
<style type="text/css">
	.st0{fill:#FDD334;}
	.st1{fill-rule:evenodd;clip-rule:evenodd;fill:#FFFFFF;}
	.st2{fill-rule:evenodd;clip-rule:evenodd;fill:#D8E5EF;}
	.st3{fill:#FFFFFF;}
	.st4{fill:#EBEBEB;}
	.st5{fill:#D8E5EF;}
	.st6{fill:#F9FAFA;}
	.st7{fill:#0C183D;}
	.st8{fill-rule:evenodd;clip-rule:evenodd;fill:#545960;}
	.st9{fill-rule:evenodd;clip-rule:evenodd;fill:#7B7B7B;}
	.st10{fill:#BB2025;}
</style>
<g>
	<path class="st6" d="M46.2,15.4c0.1-3.3-0.6-6.4-2.6-9c-2.8-3.9-6.6-6-11.7-6.1c-0.3,0-0.8,0-1.4,0.1c-0.6,0.1-1.1,0.1-1.7,0.3
		c-4.7,1.2-8,4-9.8,8.4c-2.3,5.9-1.4,11.3,3,16c3.9,4.1,8.8,5.2,14.2,3.6C42.1,26.9,46,21.5,46.2,15.4z M34.6,20.7
		c0,1.1-0.7,2.1-1.7,2.4c-1.1,0.3-2.2,0-2.8-1c-0.3-0.4-0.4-0.9-0.4-1.4c0-2,0-4,0-5.9c0-2,0-4,0-6c0-1.1,0.8-2.1,1.8-2.4
		c1.2-0.3,2.3,0.2,2.8,1.3c0.2,0.4,0.3,0.8,0.3,1.2C34.6,12.7,34.6,16.7,34.6,20.7z"/>
	<path class="st6" d="M68.4,29.3c-0.3-0.5-0.6-1-0.9-1.6c-2.5-4.3-4.9-8.6-7.5-12.8c-0.3-0.5-0.2-0.9,0-1.3c2.5-4.4,5-8.8,7.5-13.2
		C67.7,0,67.7,0,67.3,0c-2.7,0-5.5,0-8.2,0c-0.3,0-0.5,0.1-0.7,0.4c-0.9,1.7-1.8,3.4-2.8,5.1c-0.2,0.3-0.3,0.6-0.5,0.8
		C55,6.2,54.9,6,54.9,5.9c-1-1.8-2-3.7-3-5.5C51.8,0.1,51.6,0,51.3,0c-0.7,0-1.5,0-2.2,0c-2.1,0-4.3,0-6.4,0c-0.3,0-0.4,0-0.2,0.3
		c0.2,0.4,0.5,0.8,0.7,1.2c2.4,4.2,4.8,8.3,7.2,12.5c0.1,0.2,0.1,0.3,0,0.6c-1.3,2.3-2.7,4.7-4,7c-1.5,2.6-2.9,5.1-4.4,7.7
		c-0.1,0.2-0.2,0.4,0.2,0.4c2.8,0,5.6,0,8.5,0c0.2,0,0.4-0.1,0.5-0.3c1.2-2.3,2.4-4.5,3.7-6.8c0.1-0.1,0.1-0.3,0.2-0.3
		c0.1,0,0.2,0.2,0.2,0.3c1.1,2,2.3,4.1,3.4,6.1c0.4,0.7,0.8,1,1.6,1c2.6-0.1,5.3,0,7.9,0C68.5,29.6,68.6,29.6,68.4,29.3z"/>
	<path class="st6" d="M16,11.9c-2.4,0-4.7,0-7.1,0c-0.5,0-0.5,0-0.5-0.5c0-0.9,0-1.9,0-2.8c0-0.4,0.1-0.5,0.5-0.5c3,0,6,0,9,0
		c0.3,0,0.4-0.1,0.4-0.4c-0.2-2.4-0.4-4.9-0.5-7.3c0-0.3-0.1-0.4-0.5-0.4C11.7,0,6.1,0,0.5,0C0.1,0,0,0.1,0,0.5C0,5.2,0,10,0,14.8
		c0,4.8,0,9.6,0,14.3c0,0.3,0.1,0.4,0.4,0.4c2.5,0,5,0,7.5,0c0.3,0,0.4-0.1,0.4-0.4c0-2.9,0-5.8,0-8.6c0-0.4,0.1-0.5,0.5-0.5
		c2.4,0,4.8,0,7.2,0c0.4,0,0.4-0.1,0.4-0.5c0-2.4,0-4.7,0-7.1C16.5,12,16.3,11.9,16,11.9z"/>
</g>
</svg>
