<?xml version="1.0" encoding="utf-8"?>
<!-- Generator: Adobe Illustrator 23.0.3, SVG Export Plug-In . SVG Version: 6.00 Build 0)  -->
<svg version="1.1" id="Calque_1" xmlns="http://www.w3.org/2000/svg" xmlns:xlink="http://www.w3.org/1999/xlink" x="0px" y="0px"
	 width="81.6px" height="46.8px" viewBox="0 0 81.6 46.8" style="enable-background:new 0 0 81.6 46.8;" xml:space="preserve">
<style type="text/css">
	.st0{fill:#FDD334;}
	.st1{fill-rule:evenodd;clip-rule:evenodd;fill:#FFFFFF;}
	.st2{fill-rule:evenodd;clip-rule:evenodd;fill:#D8E5EF;}
	.st3{fill:#FFFFFF;}
	.st4{fill:#EBEBEB;}
	.st5{fill:#D8E5EF;}
	.st6{fill:#F9FAFA;}
	.st7{fill:#0C183D;}
	.st8{fill-rule:evenodd;clip-rule:evenodd;fill:#545960;}
	.st9{fill-rule:evenodd;clip-rule:evenodd;fill:#7B7B7B;}
	.st10{fill:#BB2025;}
</style>
<g>
	<path class="st3" d="M81.4,36.1c-0.8-3.5-3-5.8-6.4-6.8c-1.4-0.4-2.8-0.3-4.2-0.1c-0.2,0-1,0.3-1.1,0.3c-0.3,0.1-0.5,0.2-0.8,0.3
		L43.8,46.7c0.2,0,0.2,0,0.3,0c9.6,0,19.2,0,28.7,0.1c0.6,0,1.2-0.1,1.8-0.2c3.5-0.8,6.2-3.6,6.9-7.2c0,0,0-0.1,0-0.1
		c0-0.5,0.1-1,0.1-1.4v-0.7C81.6,36.8,81.5,36.4,81.4,36.1L81.4,36.1z"/>
	<polygon class="st3" points="70.1,29.4 70.1,29.4 70.1,29.4 	"/>
	<path class="st3" d="M37.1,46.2c-6.3-4.2-12.5-8.4-18.8-12.7c-1.8-1.2-3.5-2.5-5.4-3.5c-5.2-2.8-11.6,0.3-12.7,6.1
		c0,0.1-0.2,0.9-0.2,1.2v0.7c0,0.3,0.1,1,0.1,1c0.1,0.8,0.3,1.5,0.6,2.2c1.3,3.3,4.6,5.5,8.1,5.5c4.5,0,9.1,0,13.6,0
		c4.8,0,9.5,0,14.3,0c0.3,0,0.7,0,1.1,0C37.6,46.5,37.3,46.4,37.1,46.2z"/>
	<path class="st3" d="M32.1,0C26-0.2,21.3,5.9,23.6,12.3c1.3,3.7,2.9,7.2,4.4,10.8c2.3,5.7,4.7,11.3,7.1,17.1
		c0.1-0.2,0.1-0.3,0.1-0.3c0.4-2.1,0.8-4.2,1.1-6.4c1.3-7.4,2.6-14.8,3.8-22.2C40.5,9.6,40.5,8,40,6.4C38.9,2.7,35.7,0.1,32.1,0z"/>
	<path class="st3" d="M46.6,40.1c0.2-0.2,0.2-0.4,0.3-0.5c2.8-6.8,5.6-13.6,8.4-20.3c1-2.3,2-4.6,2.7-7c0.8-2.5,0.8-4.9-0.4-7.3
		c-1.7-3.4-5.6-5.4-9.1-4.7c-4.2,0.8-7.4,4.7-7.2,9c0,0.3,0.1,0.4,0.4,0.4c0.8,0,1.6,0,2.4,0c0.3,0,0.7,0.1,1,0.2
		c0.1,0,0.2,0.1,0.2,0.2c0,0.1-0.1,0.1-0.2,0.2c-0.5,0.3-1.1,0.6-1.6,1c-1.1,0.8-1.6,1.8-1.5,3.2c0.2,1.7,0.5,3.4,0.8,5.1
		c1.1,5.9,2.2,11.8,3.2,17.8C46.2,38.1,46.4,39.1,46.6,40.1z"/>
	<path class="st3" d="M11.4,27.6c7.8,5.2,15.5,10.5,23.3,15.7c0.2,0.2,0.5,0.3,0.8,0.5c-0.2-0.4-0.3-0.6-0.4-0.9
		c-3.2-7.6-6.4-15.2-9.6-22.7c-0.7-1.6-1.3-3.2-2.2-4.8c-2.7-4.6-8.8-5.1-12.3-2.7C5.9,16.5,6.1,24,11.4,27.6z"/>
	<path class="st3" d="M49.9,34.9l-3.6,8.4c0,0.1-0.1,0.3-0.1,0.4c0.2,0,0.3-0.1,0.4-0.1l24.2-16.3l0,0c0,0,0.1-0.1,0.1-0.1
		C71,27.1,71,27,71.1,27c3.1-2.6,4.1-6.8,2.4-10.5c-3-6.4-10.3-6.1-13.6-3c-1.2,1.1-2,2.5-2.6,3.9C54.8,23.2,52.3,29,49.9,34.9z"/>
</g>
</svg>
