<?xml version="1.0" encoding="utf-8"?>
<!-- Generator: Adobe Illustrator 23.0.3, SVG Export Plug-In . SVG Version: 6.00 Build 0)  -->
<svg version="1.1" id="Calque_1" xmlns="http://www.w3.org/2000/svg" xmlns:xlink="http://www.w3.org/1999/xlink" x="0px" y="0px"
	 width="100.7px" height="30.8px" viewBox="0 0 100.7 30.8" style="enable-background:new 0 0 100.7 30.8;" xml:space="preserve">
<style type="text/css">
	.st0{fill:#FDD334;}
	.st1{fill-rule:evenodd;clip-rule:evenodd;fill:#FFFFFF;}
	.st2{fill-rule:evenodd;clip-rule:evenodd;fill:#D8E5EF;}
	.st3{fill:#FFFFFF;}
	.st4{fill:#EBEBEB;}
	.st5{fill:#D8E5EF;}
	.st6{fill:#F9FAFA;}
	.st7{fill:#0C183D;}
	.st8{fill-rule:evenodd;clip-rule:evenodd;fill:#545960;}
	.st9{fill-rule:evenodd;clip-rule:evenodd;fill:#7B7B7B;}
	.st10{fill:#BB2025;}
</style>
<g>
	<path class="st3" d="M76.6,29.9c-0.7,0-1.4-0.1-2.1-0.2c-0.3,0-0.3-0.1-0.4-0.3c-0.5-2.6-1-5.2-1.5-7.8c-1.3-7-2.7-13.9-3.6-21
		C68.9,0,68.9,0,68.2,0c-0.2,0-0.4,0-0.6,0C67.2,0,67.1,0.1,67,0.5c-2.2,6.4-4.6,12.8-7.3,19c-0.7,1.5-1.3,3.1-2.1,4.7
		c-0.7-1.8-1.4-3.4-2.1-5c-2.4-5.9-5.1-11.7-7-17.8c-0.1-0.4-0.1-1-0.5-1.2c-0.4-0.2-0.9,0-1.4,0c-0.3,0-0.4,0.1-0.4,0.3
		C46,2.2,45.8,4,45.5,5.8c-0.7,4-1.4,8-2.2,12.1c-0.7,3.8-1.5,7.7-2.2,11.5c0,0.2-0.1,0.4-0.4,0.4c-0.6,0-1.3,0.1-1.9,0.2
		c-0.1,0-0.3,0-0.3,0.2c-0.1,0.4,0,0.6,0.5,0.6c1.6,0,3.3-0.2,4.9-0.1c0.7,0,1.3,0,2,0.1c0.3,0,0.3-0.1,0.3-0.4
		c0-0.2,0.1-0.4-0.3-0.4c-0.7,0-1.4-0.1-2.1-0.1c-0.2,0-0.3-0.1-0.3-0.3c0.2-1.3,0.4-2.6,0.6-3.9c0.7-4.5,1.6-8.9,2.5-13.4
		c0.1-0.6,0.3-1.2,0.4-2c0.1,0.2,0.1,0.3,0.2,0.4c2.7,6.3,5.3,12.6,8,19c0.1,0.4,0.2,0.8,0.5,1c0.3,0.2,0.7,0,1.1,0.1
		c0.3,0,0.4-0.1,0.5-0.3c2.8-6.6,5.5-13.1,8.3-19.6c0-0.1,0-0.2,0.2-0.3c0,0.2,0.1,0.3,0.1,0.5c0.7,3.4,1.3,6.7,2,10.1
		c0.5,2.8,1,5.5,1.3,8.4c0,0.4-0.1,0.4-0.4,0.4c-0.7,0-1.4,0.1-2.1,0.2c-0.1,0-0.2,0-0.3,0.1c-0.1,0.4,0,0.6,0.4,0.6
		c1.6,0,3.2-0.2,4.7-0.1c1.7,0,3.3,0.1,5,0.1c0.2,0,0.4,0,0.4-0.3C76.9,30.2,77,29.9,76.6,29.9z"/>
	<path class="st3" d="M100.5,24.6c-0.2,0-0.2,0.1-0.2,0.3c-0.1,1.2-0.2,2.4-0.3,3.5c0,0.3-0.1,0.3-0.3,0.3c-4.7,0.1-9.5,0.1-14.2,0
		c-0.2,0-0.3-0.1-0.3-0.3c0-3.9,0-7.8,0-11.8c0-0.2,0.1-0.3,0.3-0.3c1.1,0,2.2-0.1,3.4-0.1c2.7,0,5.5,0,8.2,0c0.4,0,0.4,0.2,0.5,0.5
		c0.1,0.7,0.2,1.4,0.3,2c0,0.2,0.1,0.3,0.3,0.3c0.3,0,0.2-0.1,0.2-0.3c0-0.7,0-1.4,0-2.1c0-1.6,0-3.1,0-4.7c0-0.1,0.1-0.4-0.2-0.4
		c-0.3,0-0.3,0.1-0.3,0.3c-0.1,0.7-0.2,1.3-0.3,2c0,0.2-0.1,0.3-0.3,0.3c-0.5,0-1,0.1-1.5,0.1c-3.4,0.1-6.8,0-10.2,0
		c-0.3,0-0.3-0.1-0.3-0.3c0-3.8,0-7.6,0-11.4c0-0.3,0.1-0.3,0.4-0.3c4.6,0,9.3-0.1,13.9,0.1c0.3,0,0.3,0.1,0.3,0.3
		c0.1,1,0.2,2,0.2,3c0,0.2,0,0.4,0.3,0.4c0.3,0,0.2-0.2,0.2-0.4c0-1.7,0-3.4,0-5.1c0-0.4-0.1-0.5-0.5-0.5
		c-5.6,0.1-11.2,0.1-16.8,0.1c-1.6,0-3.3-0.1-4.9-0.1c-0.2,0-0.4,0-0.4,0.3c0,0.3,0.1,0.4,0.4,0.4c0.7,0,1.4,0.2,2.1,0.2
		c0.4,0,0.4,0.2,0.4,0.5c0,8.7,0,17.4,0,26.1c0,0.6,0,1.2,0,1.7c0,0.3-0.1,0.3-0.3,0.4c-0.7,0-1.5,0.1-2.2,0.2
		c-0.3,0-0.4,0.1-0.4,0.4c0,0.3,0.1,0.4,0.4,0.4c1.1,0,2.1-0.1,3.2-0.1c2.6-0.1,5.3,0,7.9,0.2c3.7,0,7.4,0,11.1,0
		c0.2,0,0.4,0,0.4-0.3c0-1.9,0-3.7,0.1-5.6C100.7,24.7,100.8,24.6,100.5,24.6z"/>
	<path class="st3" d="M25.8,0.4c0-0.3-0.1-0.4-0.4-0.4c-4.3,0.1-8.5,0.1-12.8,0.1c-4.1,0-8.2,0-12.3-0.1C0.1,0,0,0.1,0,0.4
		c0,1.7,0,3.5,0,5.2c0,0.1,0,0.3,0.2,0.3c0.2,0,0.2-0.1,0.2-0.3c0-1,0-2,0-3c0-0.3,0.1-0.4,0.4-0.4c3.2,0,6.3,0,9.5,0
		c0.3,0,0.4,0.1,0.4,0.4c0,3,0,6.1,0,9.1c0,5.9,0,11.8,0,17.7c0,0.3,0,0.4-0.4,0.4c-0.7,0-1.4,0.1-2.2,0.1c-0.2,0-0.3,0.1-0.3,0.3
		c0,0.4,0.1,0.5,0.5,0.5c1.8,0,3.5-0.2,5.3-0.1c1.4,0,2.8,0.1,4.2,0.1c0.2,0,0.4,0,0.3-0.3c0-0.2,0-0.4-0.3-0.4
		c-0.7,0-1.5-0.1-2.2-0.1c-0.3,0-0.4-0.1-0.4-0.4c0-0.5,0-1,0-1.5c0-4,0-8,0-12c0,0,0,0,0,0c0-4.5,0-9,0-13.4c0-0.2,0-0.4,0.3-0.4
		c3.1,0,6.2,0,9.3,0c0.3,0,0.4,0.1,0.4,0.4c0,1.1,0.1,2.1,0.1,3.2c0,0.1-0.1,0.4,0.2,0.4c0.3,0,0.2-0.2,0.2-0.4
		C25.8,4,25.8,2.2,25.8,0.4z"/>
	<path class="st3" d="M37,0.1c-1.6,0.1-3.1,0.1-4.9,0.1c-1.4,0-2.9-0.1-4.5-0.1c-0.2,0-0.4-0.1-0.4,0.3c0,0.3,0,0.5,0.4,0.5
		c0.6,0,1.3,0.1,1.9,0.1C29.9,1,30,1.1,30,1.5c0,8.7,0,17.5,0,26.2c0,0.6,0,1.1,0,1.7c0,0.3-0.1,0.4-0.4,0.4c-0.7,0-1.4,0.1-2.1,0.2
		c-0.1,0-0.2,0-0.3,0.1c-0.2,0.4,0,0.7,0.4,0.7c0.1,0,0.3,0,0.4,0c1.8-0.1,3.6-0.2,5.3-0.1c1.2,0,2.4,0.1,3.6,0.2
		c0.3,0,0.3-0.1,0.3-0.3c0-0.2,0-0.4-0.3-0.4c-0.7,0-1.4-0.1-2.2-0.1c-0.4,0-0.5-0.2-0.5-0.6c0-9.3,0-18.5,0-27.8c0,0,0-0.1,0-0.1
		c0-0.2,0.1-0.2,0.2-0.3C35.4,1,36.2,0.9,37,0.9c0.4,0,0.4-0.2,0.4-0.5C37.3,0.1,37.2,0.1,37,0.1z"/>
</g>
</svg>
