<?xml version="1.0" encoding="utf-8"?>
<!-- Generator: Adobe Illustrator 23.0.3, SVG Export Plug-In . SVG Version: 6.00 Build 0)  -->
<svg version="1.1" id="Calque_1" xmlns="http://www.w3.org/2000/svg" xmlns:xlink="http://www.w3.org/1999/xlink" x="0px" y="0px"
	 width="473.9px" height="92.4px" viewBox="0 0 473.9 92.4" style="enable-background:new 0 0 473.9 92.4;" xml:space="preserve">
<style type="text/css">
	.st0{fill:#FDD334;}
	.st1{fill:#FFFFFF;}
	.st2{fill-rule:evenodd;clip-rule:evenodd;fill:#FFFFFF;}
	.st3{fill-rule:evenodd;clip-rule:evenodd;fill:#D8E5EF;}
	.st4{fill:#EBEBEB;}
	.st5{fill:#D8E5EF;}
	.st6{fill:#FDD800;}
	.st7{fill:#FAA71B;}
	.st8{fill:#F9FAFA;}
	.st9{fill:#0C183D;}
	.st10{fill-rule:evenodd;clip-rule:evenodd;fill:#545960;}
	.st11{fill-rule:evenodd;clip-rule:evenodd;fill:#7B7B7B;}
	.st12{fill:#BB2025;}
</style>
<g>
	<g>
		<path class="st1" d="M96.2,77h-1.7l2.4-14.4h8.8l-0.3,1.5h-7l-0.8,4.7h6.1l-0.2,1.4h-6.1L96.2,77z"/>
		<path class="st1" d="M109.1,77.3c-3,0-4.3-2.4-4.3-4.9c0-2.9,1.9-6.3,5.4-6.3c2.4,0,4.3,1.7,4.3,5
			C114.4,73.8,112.5,77.3,109.1,77.3z M112.2,68.4c-0.4-0.6-1.2-1-2.1-1c-2.9,0-3.5,3.8-3.5,5.4c0,0.5,0,3.2,2.6,3.2
			c2.8,0,3.5-3.7,3.5-5.5C112.7,69.5,112.5,68.8,112.2,68.4z"/>
		<path class="st1" d="M116,77l1.8-10.7h1.6l-0.5,2.8c1.4-2.5,2.5-3.1,4.4-3.1l-0.3,1.7c-1,0-2.1,0-3.3,1.7
			c-0.9,1.3-1.2,2.6-1.6,5.2l-0.4,2.4H116z"/>
		<path class="st1" d="M135.1,64L133,77h-1.7l2.2-12.9h-4.2l0.2-1.5h10.1l-0.2,1.5H135.1z"/>
		<path class="st1" d="M142.1,68.3c0.5-0.8,1.5-2.3,3.6-2.3c1.5,0,3,0.9,3,2.9c0,0.5-0.1,1.3-0.2,1.5l-1.1,6.6h-1.6l1.1-6.6
			c0-0.3,0.1-0.8,0.1-1.3c0-1.3-0.9-1.8-1.8-1.8c-1,0-3.2,0.9-3.9,5.3l-0.7,4.4H139l2.4-14.4h1.6L142.1,68.3z"/>
		<path class="st1" d="M152.5,71.8c0,0.3-0.1,0.5-0.1,0.8c0,1.9,1,3.3,2.9,3.3c1.8,0,2.5-1.1,3.2-2.1l1.4,0.6
			c-0.5,0.8-1.7,2.8-4.6,2.8c-2.2,0-4.6-1.4-4.6-4.9c0-3.6,2.3-6.5,5.5-6.5c1.9,0,4.3,1,4.3,4.6c0,0.5,0,0.9-0.1,1.2H152.5z
			 M158.8,70.6c0.2-3.1-2-3.3-2.6-3.3c-1.9,0-3.1,1.5-3.5,3.3H158.8z"/>
		<path class="st1" d="M170.2,77h-1.7l2.4-14.4h1.8L170.2,77z"/>
		<path class="st1" d="M180.6,77l1-6.1c0.1-0.6,0.2-1.3,0.2-1.5c0-0.7-0.4-2-2-2c-1.1,0-2.1,0.8-2.6,1.7c-0.8,1.2-1.2,3.3-1.3,4.2
			l-0.7,3.8h-1.5l1.8-10.7h1.4l-0.4,2.4c0.4-0.7,1.4-2.7,3.8-2.7c2,0,3.2,1.4,3.2,3.1c0,0.5-0.1,1.2-0.2,1.7l-1,6.2H180.6z"/>
		<path class="st1" d="M187.2,76.3c-0.3,1.6-0.4,2.4-1,3.2c-0.3,0.4-1.1,1.2-2.7,1.2c-0.6,0-1.1-0.1-1.5-0.1l0.2-1.3
			c0.3,0,0.8,0.1,1.1,0.1c1,0,1.4-0.4,1.6-0.8c0.2-0.4,0.2-0.5,0.5-2.2l1.7-10h1.6L187.2,76.3z M187.3,64.5l0.3-2h2.2l-0.3,2H187.3z
			"/>
		<path class="st1" d="M198.8,77h-1.4l0.4-2.6c-0.5,0.9-1.5,2.9-3.9,2.9c-0.5,0-1.4-0.1-2.2-0.9c-0.6-0.6-0.7-1.3-0.7-2.1
			c0-0.4,0-0.8,0.2-2l1-6h1.6l-1.1,6.5c-0.1,0.3-0.2,1.1-0.2,1.3c0,1.1,0.7,1.8,1.7,1.8c0.8,0,1.8-0.4,2.7-1.8
			c0.9-1.4,1.1-2.7,1.3-3.7l0.7-4.1h1.5L198.8,77z"/>
		<path class="st1" d="M202.1,77l1.8-10.7h1.6l-0.5,2.8c1.4-2.5,2.5-3.1,4.4-3.1l-0.3,1.7c-1,0-2.1,0-3.3,1.7
			c-0.9,1.3-1.2,2.6-1.6,5.2l-0.4,2.4H202.1z"/>
		<path class="st1" d="M211,71.8c0,0.3-0.1,0.5-0.1,0.8c0,1.9,1,3.3,2.9,3.3c1.8,0,2.5-1.1,3.2-2.1l1.4,0.6
			c-0.5,0.8-1.7,2.8-4.6,2.8c-2.2,0-4.6-1.4-4.6-4.9c0-3.6,2.3-6.5,5.5-6.5c1.9,0,4.3,1,4.3,4.6c0,0.5,0,0.9-0.1,1.2H211z
			 M217.2,70.6c0.2-3.1-2-3.3-2.6-3.3c-1.9,0-3.1,1.5-3.5,3.3H217.2z"/>
		<path class="st1" d="M227.2,77l0.4-2.1c-0.6,0.9-1.6,2.4-3.7,2.4c-2.7,0-3.5-2.5-3.5-4.5c0-2.5,1.5-6.7,5.1-6.7
			c2.2,0,2.9,1.5,3.1,2l0.9-5.5h1.6L228.8,77H227.2z M225.6,67.4c-2.7,0-3.5,4-3.5,5.7c0,2.2,1.2,3,2.2,3c2.2,0,3.8-2.8,3.8-5.7
			C228.2,68.2,226.7,67.4,225.6,67.4z"/>
	</g>
	<g>
		<polygon class="st6" points="32,29.1 33.9,29.6 35.8,30.1 37.7,30.8 37.7,29.6 37.5,27.5 37,26.2 36.6,25.3 35.7,24.8 34.8,24.9 
			34.3,25.4 33.5,26.2 32.7,27.5 32,29.1 		"/>
		<polygon class="st7" points="23.3,0.8 24.3,1.6 25.4,3.6 26.4,6.3 26.8,7.7 24.2,7.3 22,7.1 20.1,7.1 18.9,7.1 19.5,5.2 19.9,3.6 
			20.7,2.1 21.2,1.4 21.4,1.1 21.8,0.9 22.1,0.7 22.7,0.6 23.1,0.7 23.3,0.8 		"/>
		<polygon class="st6" points="23.5,0.9 22.8,0.4 22,0.1 20.8,0 19.6,0 17.1,0.2 14.2,1.1 8.4,3.6 7.1,4.2 5.1,5.5 2.5,7.9 1.8,8.7 
			1,9.9 0.6,10.9 0.2,11.8 0.1,13 0,14.8 0,17.3 0.2,18.7 0.5,20.8 0.7,21.9 1,23.1 1.7,25.3 2.4,27.3 3.4,29.5 4.5,31.6 5.7,34 
			7.3,36.3 9,38.9 10.8,41.6 12.7,44.1 14.9,46.9 17.3,50.2 19.7,53.3 23.3,58.3 26.1,62.6 27.5,65.2 29.9,70.8 30.8,74.3 
			31.1,76.4 31.2,78.1 31.3,80.1 31,82.9 30.5,85.5 29.7,88.3 27.9,92.4 31.9,91.8 33.4,86.2 34.1,81.7 34.4,77.8 34.4,73 
			33.7,68.4 32.5,62.6 31.1,57.6 29.1,52 26,44.3 22.5,35.4 20.2,28.1 19.1,22.7 18.3,15.8 18.3,12.5 19,7.3 20.1,3.9 20.9,2.3 
			21.6,1.4 22.3,0.9 23.5,0.9 		"/>
		<polygon class="st7" points="33.1,65.4 31.4,54.6 30.2,45.1 30.1,39.1 30.2,36 31.4,31.3 32,29.7 33,27.7 33.7,26.4 34.5,25.6 
			35.1,25.2 35.5,25.1 35.9,25 36.8,25.5 35.8,24.5 35,24.2 33.7,23.9 31.7,23.8 28.6,24 25.3,24.7 23.2,25.3 21.5,26 20,26.8 
			20.2,28.1 22.5,35.3 29.6,53.7 31.1,57.6 32.5,62.6 33.1,65.4 		"/>
	</g>
	<path class="st1" d="M76.4,21.1c-0.2-2.2-0.5-5.2-0.5-6.9H55.4v1.3c3.6,0.3,4,0.5,4,4.6v18.6c0,4-0.4,4.3-4.1,4.6v1.3h12.7v-1.3
		c-4.2-0.3-4.6-0.6-4.6-4.6v-8.4h4.8c4.2,0,4.4,0.6,5,3.7h1.3v-9h-1.3c-0.6,3-0.8,3.4-5,3.4h-4.8V17.3c0-1.4,0.1-1.4,1.5-1.4h3.5
		c3.5,0,4.6,0.4,5.3,1.7c0.7,1,0.9,1.9,1.3,3.7L76.4,21.1L76.4,21.1z M88.7,44.6v-1.2c-3-0.3-3.4-0.6-3.4-3.6V11.4
		c-1.6,0.6-4.5,1.4-6.9,1.6v1.1c2.9,0.2,3.2,0.4,3.2,3.5v22.1c0,3.1-0.4,3.4-3.4,3.6v1.2H88.7L88.7,44.6z M100.9,23.6
		c-4.2,0-10.2,3.5-10.2,11.2c0,5.2,3.8,10.3,10.2,10.3c4.6,0,10.1-3.6,10.1-11.1C111,28.3,106.7,23.6,100.9,23.6L100.9,23.6z
		 M100.4,25.2c4.1,0,6.3,4.4,6.3,9.9c0,6.4-2.4,8.5-5.3,8.5c-3.8,0-6.4-4.4-6.4-10.3C95,28.1,97.5,25.2,100.4,25.2L100.4,25.2z
		 M120.1,28.6v-5.1c-2.2,1-4.3,1.5-6.6,1.9v1c2.7,0.4,2.9,0.6,2.9,3.6v9.7c0,3.1-0.3,3.4-3.2,3.6v1.2H124v-1.2
		c-3.6-0.3-3.8-0.6-3.8-3.6v-8.5c1-2.6,2.5-4,3.7-4c0.7,0,1.3,0.3,2,1c0.3,0.3,0.7,0.3,1.3,0.1c0.9-0.4,1.5-1.4,1.5-2.3
		c0-1.1-1.1-2.3-2.7-2.3C123.6,23.6,121.6,26.2,120.1,28.6L120.1,28.6L120.1,28.6z M148.7,42.8l-0.5-1.2c-0.5,0.3-1.1,0.5-1.7,0.5
		c-0.8,0-1.6-0.7-1.6-2.8v-8.7c0-2.4-0.5-4.3-2.1-5.7c-1-0.8-2.4-1.3-3.8-1.3c-2.7,0.5-5.7,2.3-7,3.3c-0.9,0.7-1.5,1.2-1.5,1.9
		c0,1.1,1.2,2,2.1,2c0.7,0,1.2-0.3,1.4-1.1c0.4-1.4,0.8-2.5,1.4-3.1c0.5-0.6,1.2-0.9,2.1-0.9c2.3,0,3.9,1.9,3.9,5.3v0.8
		c-1,0.8-4.4,2.1-7.2,3c-2.6,0.9-3.8,2.3-3.8,4.6c0,2.9,2.3,5.7,5.6,5.7c1.4,0,3.6-1.7,5.5-3c0.2,0.8,0.5,1.4,1.1,2.1
		c0.5,0.5,1.5,0.9,2.2,0.9L148.7,42.8L148.7,42.8z M141.4,40.7c-0.9,0.8-2.5,1.6-3.7,1.7c-1.4,0-3.3-1.2-3.3-3.6
		c0-1.7,1-2.6,2.8-3.4c1-0.5,3.2-1.4,4.2-2V40.7L141.4,40.7z M186.3,21.4c-0.2-2.7-0.5-6.1-0.5-8.3h-1c-0.7,0.9-1.1,1.2-2.4,1.2H164
		c-1.3,0-1.9-0.1-2.6-1.2h-0.9c-0.1,2.6-0.3,5.6-0.6,8.4h1.4c0.6-2.1,0.9-3.4,1.5-4.2c0.6-1.1,1.5-1.4,5.4-1.4h2.9v22.9
		c0,3.7-0.4,4.2-4.6,4.4v1.3h13.4v-1.3c-4.4-0.3-4.8-0.7-4.8-4.4V15.9h3.3c3.5,0,4.3,0.3,5,1.4c0.6,0.7,1,1.9,1.5,4.2L186.3,21.4
		L186.3,21.4z M200.1,39.6c-1.7,1.6-3.5,2.3-5.3,2.3c-3.3,0-6.9-2.6-7-9c5.6-0.2,11.4-0.7,12.2-0.8c0.8-0.2,1.1-0.6,1.1-1.5
		c0-3.6-3.1-7.1-7-7.1c-2.4,0-4.9,1.3-6.9,3.4c-1.9,2.1-3.1,4.9-3.1,8.2c0,5.3,3.4,9.9,9.1,9.9c1.4,0,4.7-0.8,7.6-4.5L200.1,39.6
		L200.1,39.6z M192.9,25.4c2.6,0,4.2,2.2,4.1,4.7c0,0.7-0.3,0.9-1.1,0.9c-2.7,0.1-5.3,0.1-7.9,0.1C188.8,27.3,190.8,25.4,192.9,25.4
		L192.9,25.4z M238.9,44.6v-1.2c-2.7-0.3-3-0.5-3-3.6v-9c0-4.6-2.3-7.1-5.9-7.1c-1.3,0-2.5,0.6-3.5,1.2c-1.2,0.7-2.5,1.6-3.9,2.6
		c-0.9-2.4-2.9-3.8-5.2-3.8c-1.5,0-2.6,0.5-3.8,1.3c-1.4,0.9-2.4,1.7-3.4,2.4v-3.8c-2.1,0.9-4.4,1.5-6.5,1.9v1.1
		c2.7,0.4,2.8,0.7,2.8,3.6v9.7c0,3-0.4,3.3-3.5,3.6v1.2h9.8v-1.2c-2.3-0.3-2.7-0.6-2.7-3.6v-11c1.4-1.2,3.2-2.4,5.1-2.4
		c2.8,0,4.1,1.9,4.1,5.4v8c0,3.1-0.4,3.3-3.3,3.6v1.2h10v-1.2c-2.6-0.3-3-0.6-3-3.5v-9.1c0-0.9,0-1.4-0.1-2c1.8-1.5,3.5-2.4,5.2-2.4
		c2.9,0,4.1,2.1,4.1,5.4v7.8c0,3.3-0.5,3.5-3.3,3.8v1.2H238.9L238.9,44.6z M246.5,26.9v-3.7c-2.2,0.9-4.8,1.7-6.8,2v1.1
		c2.9,0.4,3.1,0.5,3.1,3.5v21.1c0,3.1-0.4,3.4-3.4,3.6v1.3h11.1v-1.3c-3.6-0.3-4-0.6-4-4.1v-6.1c0.6,0.3,1.9,0.8,3.2,0.8
		c6.1-1.1,11.6-5.6,11.6-12.7c0-4.6-3.1-8.8-8.3-8.8c-0.6,0-1.4,0.2-2.3,0.7L246.5,26.9L246.5,26.9z M246.5,28.4
		c1.3-0.9,3.2-2,4.7-2c3.4,0,6.3,2.8,6.3,7.8c0,5.3-2.6,8.6-6.5,8.6c-1.6,0-3.4-0.7-4.4-1.8V28.4L246.5,28.4z M273.4,44.6v-1.2
		c-3-0.3-3.4-0.6-3.4-3.6V11.4c-1.6,0.6-4.5,1.4-6.9,1.6v1.1c2.9,0.2,3.2,0.4,3.2,3.5v22.1c0,3.1-0.4,3.4-3.4,3.6v1.2H273.4
		L273.4,44.6z M291.3,39.6c-1.7,1.6-3.5,2.3-5.3,2.3c-3.3,0-6.9-2.6-6.9-9c5.6-0.2,11.4-0.7,12.2-0.8c0.8-0.2,1.1-0.6,1.1-1.5
		c0-3.6-3.1-7.1-7-7.1c-2.4,0-4.9,1.3-6.9,3.4c-1.9,2.1-3.1,4.9-3.1,8.2c0,5.3,3.4,9.9,9.1,9.9c1.4,0,4.7-0.8,7.6-4.5L291.3,39.6
		L291.3,39.6z M284.1,25.4c2.6,0,4.2,2.2,4.1,4.7c0,0.7-0.3,0.9-1.1,0.9c-2.7,0.1-5.3,0.1-7.9,0.1C279.9,27.3,282,25.4,284.1,25.4
		L284.1,25.4z M306.9,42.9l-0.4-1.2c-0.7,0.3-1.7,0.8-2.9,0.8c-1.2,0-2.7-0.7-2.7-4.5V26h5c0.6-0.3,0.7-1.4,0.3-1.8h-5.3v-6.4
		l-0.7-0.1l-3,3.1v3.4H295l-1.3,1.4l0.2,0.5h3.2v13.6c0,3.7,1.6,5.6,4.6,5.6c0.4,0,1.2-0.2,2-0.6L306.9,42.9L306.9,42.9z
		 M318.4,23.6c-4.2,0-10.2,3.5-10.2,11.2c0,5.2,3.8,10.3,10.2,10.3c4.6,0,10.1-3.6,10.1-11.1C328.5,28.3,324.2,23.6,318.4,23.6
		L318.4,23.6z M317.9,25.2c4.1,0,6.3,4.4,6.3,9.9c0,6.4-2.4,8.5-5.3,8.5c-3.8,0-6.4-4.4-6.4-10.3C312.5,28.1,315,25.2,317.9,25.2
		L317.9,25.2z M353.6,44.6v-1.2c-2.7-0.3-2.9-0.5-2.9-3.6v-9c0-4.5-2.3-7.1-6-7.1c-1.4,0-2.6,0.6-3.9,1.4c-1.2,0.8-2.2,1.5-3.1,2.2
		v-3.7c-2.1,0.9-4.2,1.5-6.5,1.9v1.1c2.5,0.5,2.8,0.6,2.8,3.6v9.7c0,3.1-0.2,3.3-3.4,3.6v1.2h10.1v-1.2c-2.8-0.3-3-0.5-3-3.6v-11
		c1.4-1.2,3.2-2.4,5.1-2.4c3.1,0,4.2,2.1,4.2,5.3v7.8c0,3.2-0.3,3.6-3.1,3.9v1.2H353.6L353.6,44.6z M383.4,21.1
		c-0.4-2.9-0.6-4.8-0.8-6.4c-1.8-0.6-3.7-1.1-5.9-1.1c-6,0-9.6,3.8-9.6,8.3c0,5.3,4.7,7.6,7.7,9.2c3.5,1.9,6.1,3.5,6.1,7
		c0,3.4-2.1,5.6-5.6,5.6c-4.8,0-6.9-4.7-7.6-7.6l-1.4,0.3c0.3,2.2,0.9,6.3,1.3,7.2c0.4,0.2,1.1,0.6,2.3,1c1.2,0.3,2.7,0.7,4.6,0.7
		c6.2,0,10.4-3.9,10.4-8.8c0-5.2-4.4-7.4-8.1-9.3c-3.7-1.9-5.9-3.5-5.9-6.9c0-2.5,1.6-5.1,5.2-5.1c4.1,0,5.3,3.2,6.1,6.2L383.4,21.1
		L383.4,21.1z M399.3,42.9l-0.4-1.2c-0.7,0.3-1.7,0.8-2.9,0.8c-1.2,0-2.7-0.7-2.7-4.5V26h5c0.6-0.3,0.7-1.4,0.3-1.8h-5.3v-6.4
		l-0.7-0.1l-3,3.1v3.4h-2.1l-1.3,1.4l0.2,0.5h3.2v13.6c0,3.7,1.6,5.6,4.6,5.6c0.4,0,1.2-0.2,2-0.6L399.3,42.9L399.3,42.9z
		 M422.8,42.3l-1.3-0.1c-1.8-0.1-2.1-0.4-2.1-2.8V23.9c-2.5,0.5-4.9,0.7-7.3,0.8v1.1c3.4,0.5,3.6,0.7,3.6,3.3V40
		c-1.6,1.5-3.4,2.2-5,2.2c-2.1,0-4.1-1.1-4.1-5.3v-6.3c0-3.2,0-5.4,0.1-6.8c-2.2,0.4-4.5,0.7-6.7,0.8v1.1c2.7,0.5,2.8,0.7,2.8,3.3
		v9.1c0,5,2.7,7,5.8,7c1.3,0,2.2-0.4,3.6-1.2c1.3-0.8,2.4-1.6,3.5-2.4v3.3l0.3,0.3c2.3-0.7,4.7-1.4,6.9-1.7V42.3L422.8,42.3z
		 M443.3,42.8l-0.5-1.2c-0.5,0.3-1.1,0.5-1.7,0.5c-0.8,0-1.6-0.7-1.6-2.8v-8.7c0-2.4-0.5-4.3-2.1-5.7c-1-0.8-2.4-1.3-3.8-1.3
		c-2.7,0.5-5.7,2.3-7,3.3c-0.9,0.7-1.5,1.2-1.5,1.9c0,1.1,1.2,2,2.1,2c0.7,0,1.2-0.3,1.4-1.1c0.4-1.4,0.8-2.5,1.4-3.1
		c0.5-0.6,1.2-0.9,2.1-0.9c2.3,0,3.9,1.9,3.9,5.3v0.8c-1,0.8-4.4,2.1-7.2,3c-2.6,0.9-3.8,2.3-3.8,4.6c0,2.9,2.3,5.7,5.6,5.7
		c1.4,0,3.6-1.7,5.5-3c0.2,0.8,0.5,1.4,1.1,2.1c0.5,0.5,1.5,0.9,2.2,0.9L443.3,42.8L443.3,42.8z M435.9,40.7
		c-0.9,0.8-2.5,1.6-3.7,1.7c-1.4,0-3.3-1.2-3.3-3.6c0-1.7,1-2.6,2.8-3.4c1-0.5,3.2-1.4,4.2-2V40.7L435.9,40.7z M451.1,28.6v-5.1
		c-2.2,1-4.3,1.5-6.6,1.9v1c2.7,0.4,2.9,0.6,2.9,3.6v9.7c0,3.1-0.3,3.4-3.2,3.6v1.2H455v-1.2c-3.6-0.3-3.8-0.6-3.8-3.6v-8.5
		c1-2.6,2.5-4,3.7-4c0.7,0,1.3,0.3,2,1c0.3,0.3,0.7,0.3,1.3,0.1c0.9-0.4,1.5-1.4,1.5-2.3c0-1.1-1.1-2.3-2.7-2.3
		C454.6,23.6,452.6,26.2,451.1,28.6L451.1,28.6L451.1,28.6z M473.9,42.9l-0.4-1.2c-0.7,0.3-1.7,0.8-2.9,0.8c-1.2,0-2.7-0.7-2.7-4.5
		V26h5c0.6-0.3,0.7-1.4,0.3-1.8h-5.3v-6.4l-0.7-0.1l-3,3.1v3.4H462l-1.3,1.4L461,26h3.2v13.6c0,3.7,1.6,5.6,4.6,5.6
		c0.4,0,1.2-0.2,2-0.6L473.9,42.9L473.9,42.9z"/>
</g>
</svg>
