<?xml version="1.0" encoding="utf-8"?>
<!-- Generator: Adobe Illustrator 23.0.3, SVG Export Plug-In . SVG Version: 6.00 Build 0)  -->
<svg version="1.1" id="Calque_1" xmlns="http://www.w3.org/2000/svg" xmlns:xlink="http://www.w3.org/1999/xlink" x="0px" y="0px"
	 width="69.4px" height="70.5px" viewBox="0 0 69.4 70.5" style="enable-background:new 0 0 69.4 70.5;" xml:space="preserve">
<style type="text/css">
	.st0{fill-rule:evenodd;clip-rule:evenodd;fill:url(#SVGID_1_);}
	.st1{fill:url(#SVGID_2_);}
	.st2{fill:url(#SVGID_3_);}
	.st3{fill:url(#SVGID_4_);}
</style>
<linearGradient id="SVGID_1_" gradientUnits="userSpaceOnUse" x1="53.002" y1="4.4439" x2="10.1109" y2="55.5595">
	<stop  offset="0" style="stop-color:#FFD400"/>
	<stop  offset="1" style="stop-color:#FFAE00"/>
</linearGradient>
<path style="fill:url(#SVGID_1_);" d="M67.3,29.3c0.8-1,1.3-2.3,1.3-3.7c0-1.8-0.8-3.4-2-4.5c0.2-0.7,0.4-1.4,0.4-2.1
	c0-3.2-2.6-5.9-5.8-5.9c-0.5-2.8-2.9-4.9-5.7-4.9c-0.5-2.8-2.9-4.9-5.9-4.9c-0.7,0-1.3,0.1-1.9,0.3c-0.9-2.1-3-3.6-5.5-3.6
	c-1.8,0-3.4,0.8-4.5,2.1c-1-0.8-2.3-1.3-3.7-1.3c-1.2,0-2.3,0.3-3.2,0.9C29.6,0.7,28.1,0,26.5,0s-3.1,0.7-4.2,1.7
	c-0.9-0.6-2-0.9-3.2-0.9c-2.7,0-4.9,1.8-5.7,4.2c-0.3,0-0.6-0.1-0.9-0.1c-3.3,0-5.9,2.7-5.9,5.9c0,0,0,0.1,0,0.1
	c-2.4,0.8-4.1,3-4.1,5.7c0,0.8,0.2,1.6,0.5,2.3C1.2,19.9,0,21.8,0,24c0,1.6,0.6,3,1.7,4.1c-1,1.1-1.7,2.5-1.7,4.1
	c0,1.9,0.9,3.6,2.3,4.7c-0.4,0.8-0.7,1.7-0.7,2.7c0,3.3,2.7,5.9,5.9,5.9c1.8,0,3.4-0.8,4.5-2.1c1.1,1.3,2.7,2.1,4.5,2.1
	c1.1,0,2.1-0.3,2.9-0.8c2.3,5.8,6.3,14.4,10.7,16c0,0,0.9,6.3-2.3,9.7h11.4c0,0-4.9-4.6-1.7-13.6c0,0,5.8-5.1,10.1-10.8
	c0.9,0.6,2.1,1,3.3,1c2.2,0,4.1-1.2,5.1-2.9c0.7,0.3,1.5,0.5,2.3,0.5c3,0,5.4-2.2,5.9-5c2.8-0.4,5-2.9,5-5.9
	C69.4,32,68.5,30.4,67.3,29.3z M32.6,56.6c-1.4,2.1-5.9-5.4-9-11.4c0.6,0.2,1.3,0.4,2.1,0.4c1.6,0,3-0.6,4.1-1.7
	c0.4,0.3,0.7,0.6,1.2,0.9C32.5,49.1,34,54.5,32.6,56.6z M37.8,49.8c-0.9,0.8-1-1.9-0.9-5.1c0.4-0.2,0.8-0.5,1.1-0.9
	c0.7,1.1,1.8,1.9,3.1,2.3C39.7,47.8,38.4,49.2,37.8,49.8z"/>
</svg>
