<svg version="1.1" id="heart" xmlns="http://www.w3.org/2000/svg" xmlns:xlink="http://www.w3.org/1999/xlink" x="0px" y="0px"
	 width="60.2px" height="58.8px" viewBox="0 0 60.2 58.8" style="enable-background:new 0 0 60.2 58.8;" xml:space="preserve">
<style type="text/css">
	.heart-st0{fill-rule:evenodd;clip-rule:evenodd;fill:url(#SVGID_1_);}
	.heart-st1{fill:url(#SVGID_2_);}
	.heart-st2{fill:url(#SVGID_3_);}
	.heart-st3{fill:url(#SVGID_4_);}
</style>
<linearGradient id="SVGID_1_" gradientUnits="userSpaceOnUse" x1="47.1503" y1="-2.6768" x2="9.8522" y2="41.7734">
	<stop  offset="0" style="stop-color:#FFD400"/>
	<stop  offset="1" style="stop-color:#FFAE00"/>
</linearGradient>
<path class="heart-st0" d="M51.6,1.7c-1.6-0.8-3.4-1.4-5.2-1.6C45.8,0,45.2,0,44.6,0c-7.4,0-11.1,3.7-14.9,11C26,3.7,22.3,0,14.9,0
	C6.7,0,0,6.5,0,14.6c0,14.6,14.9,29.2,29.7,43.8c0.1-0.1,0.1-0.1,0.2-0.2c0.2,0.2,0.4,0.4,0.5,0.5c5.9-5.8,11.7-11.5,16.7-17.3
	c7.6-8.9,13.1-17.7,13.1-26.5C60.2,9.1,56.7,4.1,51.6,1.7z"/>
</svg>
