<?xml version="1.0" encoding="utf-8"?>
<!-- Generator: Adobe Illustrator 23.0.3, SVG Export Plug-In . SVG Version: 6.00 Build 0)  -->
<svg version="1.1" id="Calque_1" xmlns="http://www.w3.org/2000/svg" xmlns:xlink="http://www.w3.org/1999/xlink" x="0px" y="0px"
	 width="100px" height="62.8px" viewBox="0 0 100 62.8" style="enable-background:new 0 0 100 62.8;" xml:space="preserve">
<style type="text/css">
	.st0{fill-rule:evenodd;clip-rule:evenodd;fill:url(#SVGID_1_);}
	.st1{fill:url(#SVGID_2_);}
	.st2{fill:url(#SVGID_3_);}
	.st3{fill:url(#SVGID_4_);}
</style>
<g id="_x32_y6Cmz_1_">
	<g>
		<linearGradient id="SVGID_1_" gradientUnits="userSpaceOnUse" x1="80.3291" y1="-10.0451" x2="25.329" y2="55.5014">
			<stop  offset="0" style="stop-color:#FFD400"/>
			<stop  offset="1" style="stop-color:#FFAE00"/>
		</linearGradient>
		<path style="fill:url(#SVGID_1_);" d="M0,18.8c1.2-1.1,1.5-2.5,1.6-4.1c0-1,0.5-1.9,1-2.9c1-1.7,1.7-3.5,2.6-5.2
			C5.3,6.3,5.6,6,5.9,5.6c0,0-0.2-0.1-0.4-0.2c0.1,0,0.2,0,0.3,0c0.1-1.6,0.3-3.2,0.4-4.9C7.2,1,8,1.6,9,2.1
			C8.8,2.4,8.6,2.6,8.5,2.8c0.1,0.3,0.2,0.6,0.3,0.8c-0.4,0.1-0.7,0.3-1,0.4c0,0.1,0,0.2,0.1,0.3c0.3-0.1,0.6,0,0.8-0.2
			c1-1.1,1.1-2.5,1-4c0.3,0.1,0.6,0.2,0.9,0.3C18.7,3.1,27,5.1,35.5,6c5.3,0.6,10.6,0.7,16,1c0.5,0,1-0.3,1.5-0.5
			c0-0.1,0-0.2-0.1-0.3c0.1,0.1,0.2,0.1,0.3,0.2c0.5,1.4,0.9,1.6,2.5,1.4c0.3,0,0.5,0.1,0.8,0.2c0.9,0.3,1.7,1.2,2.9,0.7
			c0.5-0.2,1.3,0.1,1.9,0.2c-1.1,1-2.3,2-3.5,3.1c0.1,0.1,0.1,0.2,0.2,0.3c0.6-0.2,1.2-0.4,1.8-0.6c0.1,0.8,0.5,1,1.2,0.6
			c0.9-0.5,1.8-1.2,2.6-1.8c0.3-0.2,0.6-0.4,1.1-0.7c-0.4,0.7-0.7,1.1-0.8,1.3c0.6,0.3,1.1,0.7,1.7,0.9c0.5,0.2,1,0.3,1.5,0.1
			c0.8-0.2,1.5-0.6,2.1-0.9c0.9,0.5,1.6,0.9,2.3,1.2c0,0.1-0.1,0.3-0.1,0.4c-0.6,0-1.3-0.1-1.9,0c-0.5,0.1-0.9,0.3-1.3,0.4
			c-2,0.4-2.3,2.2-2.9,3.7c0.3-0.3,0.6-0.6,1-0.9c-0.1,1.1-0.2,2.2-0.4,3.2c-0.3,1.4,0.2,2.7,0.6,4c0.1,0.3,0.5,0.8,0.8,0.7
			c0.4,0,0.8-0.3,1-0.6c0.6-1.1,1-2.2,0.3-3.4c-0.7-1.2-0.4-2.4-0.1-3.6c0.1-0.3,0.6-0.6,1-0.7c0.2-0.6,0.4-1.2,0.6-1.9
			c0-0.1,0.2-0.2,0.3-0.2c0.8,0.3,1.7,0.4,2.4,0.9c0.7,0.5,0.6,2.1,0.1,2.8c-0.1,0.1-0.3,0.2-0.3,0.4c0,0.2,0.1,0.5,0.2,0.7
			c0.2-0.1,0.4-0.1,0.5-0.3c0.2-0.2,0.2-0.4,0.4-0.6c0.4-0.4,0.7-0.5,1,0.1c0.3,0.6,0.5,1.3,0.7,1.9c0.1,0.3-0.2,0.6-0.3,0.9
			c-0.3,0.7-0.6,1.5-0.9,2.2c1.5,0.8,2.3,0.8,3.6-0.3c0.7-0.6,1.6-1.1,2.3-1.7c0.5-0.5,1-1,1.4-1.6c0.1-0.1,0.1-0.5,0-0.7
			c-0.4-0.6-0.2-0.9,0.4-1c0.8-0.2,1.7-0.2,2.5-0.4c1-0.2,1.5-1,1.4-1.9c-0.2-1.1,0.9-2.8,2-3.2c1.4-0.4,2.7-0.8,4.1-1.2
			c1.2-0.4,2.2-2.1,2.2-3.3c0-1.3,0.1-2.5,0.2-3.8c0.1,0.1,0.2,0.1,0.3,0.2c0.4-0.1,0.8-0.1,1.1-0.3c0.7-0.4,1.1-0.1,1.4,0.5
			c0.3,0.5,0.5,1.1,0.6,1.6c0.3,1,1.1,1.6,1.9,2.1c0.4,0.2,0.7,0.6,0.2,1.1c-0.6,0.5-1.2,1-1.9,1.5c-0.1,0.1-0.3-0.1-0.3,0.1
			c-0.4,0.5-0.8,1-1.2,1.5c-0.8,1-1.2,2.1-0.8,3.4c0.1,0.3,0,0.6-0.1,0.9c0.5,0.4,1,0.8,1.5,1.1c0.1,0.1,0.3-0.1,0.6,0
			c-0.7,0.3-1.4,0.6-1.9,0.8c-0.6,0.5-0.9,0.9-1.4,1.1c-1.5,0.6-2.6,1.5-3.4,2.9c1.6,1.3,0.4,2.6,0,3.9c-0.5-0.2-0.9-0.4-1.6-0.7
			c0.4,0.6,0.5,1,0.8,1.2c0.7,0.6,0.7,1.3,0.4,2.1c-0.3,0.7-0.4,1.4-0.7,2.3c-0.3-0.9,0.4-1.9-0.5-2.3c-1-0.5-0.9-1.3-1-2.1
			c0-0.3,0-0.6,0.1-1c-1.2,1.1-0.4,2.1,0,3.2c-0.3,0.1-0.6,0.1-0.9,0.1c1.7,0.2,1.2,1.7,1.6,2.6c-0.2,0-0.4,0-0.7-0.1
			c0.3,0.2,0.4,0.4,0.5,0.4c1-0.3,1.1,0.4,1.3,1c0,0.1,0.1,0.2,0.2,0.4c-0.3,0.2-0.6,0.4-0.9,0.6c0.4,0.2,1.3,0.4,1.3,0.5
			c0,0.9-0.6,1.2-1.4,1c0,0.4,0.1,0.8,0.1,1.2c0.1,0,0.3-0.1,0.5-0.1c-1.2,0.8-2.4,1.6-2.6,3.2c-1.3,0-1.8,0.9-2.2,2
			c-0.3,0.7-0.8,1.4-1.4,1.8c-2.3,1.9-2.8,5.1-1.3,7.7c1.1,1.9,2.4,3.8,3.2,5.8c0.5,1.2,0.2,2.7,0,4.1c-0.1,0.6-1,0.6-1.5,0.1
			c-0.4-0.5-1-0.8-1.4-1.2c-0.3-0.3-0.5-0.8-0.8-1.1c-0.4-0.4-0.7-0.8-1.1-1.2c-0.6-0.4-1-1.1-0.4-2c-0.2,0.1-0.5,0.2-0.8,0.4
			c0-0.5,0-0.9,0.1-1.4c0.1-0.9,0-1.5-1-1.9c-0.5-0.2-0.9-0.8-1.4-1.2c-0.6-0.5-1.2-0.8-1.9,0c-0.3,0.4-0.9,0.6-1.4,0.8
			c-1.6-2-3.5-1.8-5.6-0.8c-0.2-0.3-0.3-0.6-0.4-0.6c-0.6,0.2-1.2,0.4-1.8,0.5c-0.3,0.1-0.7,0-0.9,0.2c-0.6,0.4-1.1,0.6-1.7,0.2
			c-0.2-0.1-0.5,0.2-0.8,0.3c0,0.1,0,0.2,0.1,0.3c0.7,0.1,1.4,0.1,2.2,0.2c-0.1,0.3-0.3,0.6-0.5,0.9c0.4,0.3,0.9,0.6,1.3,0.9
			c-0.1,0.1-0.1,0.2-0.2,0.3c-0.6-0.3-1.2-0.6-1.9-1c-0.1,0.3-0.1,0.6-0.1,0.6c-0.5,0.1-0.9,0.3-1.2,0.3c-0.4,0-0.8-0.2-1.2-0.3
			c-0.5-0.3-1-0.7-1.5-1c-0.1-0.1-0.3,0.1-0.5,0.2c0.1,0.1,0.1,0.2,0.2,0.5c-0.7-0.1-1.4-0.3-2.1-0.3c-0.9,0-1.8,0.2-2.7,0.2
			c-0.3,0-0.7-0.1-1-0.1c-0.2,0-0.6,0.2-0.6,0.2c0.3,1.2-0.7,1.6-1.4,2c-0.5,0.3-1.2,0.3-1.6,0.4c-0.3,0.3-0.4,0.5-0.6,0.6
			c-0.6,0.5-1.1,0.9-1.5,1.8c-0.6,1.4-0.2,2.5,0.1,3.8c0,0.1-0.1,0.2-0.1,0.3c-0.9-0.3-1.8-0.7-2.7-0.9c-1.3-0.4-1.6-1.5-1.9-2.6
			c-0.2-0.7-0.7-1.2-1.1-1.8c-0.3-0.6-0.7-1.1-1-1.8c-0.6-1.5-1.5-2.6-3.3-2.7c-0.7-0.1-1.2,0.1-1.6,0.7c-0.6,1.2-0.8,1.2-1.9,0.5
			c-1.1-0.6-1.8-1.4-2.2-2.8c-0.3-1.1-1.4-1.9-2.2-2.9c-0.3-0.4-0.7-1-1.1-1.1c-1.1-0.3-2.2-0.3-3.4-0.5c-0.1,0.4-0.2,0.6-0.3,1
			c-2.8-0.5-5.7-0.4-8.2-2.3c-1.1-0.9-2.4-1.5-3.6-2.3c-0.4-0.2-0.6-0.7-0.9-1c-0.1-0.1-0.4-0.2-0.6-0.2c-1-0.2-2.1-0.3-3.1-0.4
			c-0.7-0.1-1-0.4-1.1-1.1C8,39.7,7.6,38.9,7,38.2c-0.6-0.8-1.4-1.5-2.2-2.2c-0.4-0.3-1-0.5-1.4-0.8c-0.2-0.1-0.6-0.4-0.6-0.5
			c0.5-1.6-0.7-2.8-1-4.2c-0.1-0.5-0.5-0.9,0.1-1.4c0.1-0.1,0-0.6-0.2-0.7c-0.8-0.6-0.5-1.2-0.4-2c0.2,0.2,0.3,0.4,0.5,0.7
			c0-0.7,0-1.1,0-1.7c-0.2,0.2-0.3,0.3-0.7,0.6c-0.3-1.6-1.3-2.8-0.9-4.5C0.6,20.7,0.7,20,0,19.4C0,19.2,0,19,0,18.8z"/>
	</g>
</g>
</svg>
