<svg version="1.1" id="law" xmlns="http://www.w3.org/2000/svg" xmlns:xlink="http://www.w3.org/1999/xlink" x="0px" y="0px"
	 width="61.4px" height="62.2px" viewBox="0 0 61.4 62.2" style="enable-background:new 0 0 61.4 62.2;" xml:space="preserve">
<style type="text/css">
	.law-st0{fill:url(#SVGID_1_);}
	.law-st1{fill:url(#SVGID_2_);}
</style>
<linearGradient id="SVGID_1_" gradientUnits="userSpaceOnUse" x1="52.5425" y1="16.8148" x2="8.489" y2="69.3157">
	<stop  offset="0" style="stop-color:#FFD400"/>
	<stop  offset="1" style="stop-color:#FFAE00"/>
</linearGradient>
<path class="law-st0" d="M58.6,53.1v-3.6h-1.9V33.2h0.9v-4.1h2.8v-5.8L29.8,0L0.1,23.3v5.8h4.1v4.1h0.9v16.2H3.2v3.6H0v5.2V62v0.2h61.4
	V62v-3.7v-5.2H58.6z M50.9,49.5H49v3.6h-5.5v-3.6h-1.9V33.2h0.9v-4.1h7.6v4.1h0.9V49.5z M26,49.5V33.2h0.9v-4.1H35v4.1h0.9v16.2H34
	v3.6h-6.1v-3.6H26z M10.8,33.2h0.9v-4.1h7.7v4.1h0.9v16.2h-1.9v3.6h-5.6v-3.6h-1.9V33.2z"/>
</svg>
