<svg id="Layer_1" data-name="Layer 1" xmlns="http://www.w3.org/2000/svg" width="2.48in" height="2.05in" viewBox="0 0 178.42 147.53">
  <defs>
    <style>
      .cls-1 {
        fill: #fff;
      }
    </style>
  </defs>
  <title>play_text</title>
  <g>
    <path class="cls-1" d="M6.26,147.53l-.67-2.1L13.12,143l-1.19-3.68,1.77-.58,1.87,5.79Z"/>
    <path class="cls-1" d="M3,136.42l-1.25-6,1.82-.38.8,3.83,1.92-.4-.68-3.26,1.81-.38.68,3.26,2.2-.46-.83-4,1.82-.38,1.28,6.14Z"/>
    <path class="cls-1" d="M.69,122.78l-.26-2.64,9.44-4,.23,2.33-2.26.82.29,3,2.37.38.22,2.24ZM6.37,122l-.2-2.07-.88.31c-.94.36-2.07.74-3.06,1.09v.06c1,.14,2.21.29,3.21.46Z"/>
    <path class="cls-1" d="M0,112.2l.06-3.53c0-2.07.79-3.75,3.12-3.71A2.88,2.88,0,0,1,6,106.75l4-2.14,0,2.47-3.56,1.81,0,1.22,3.53.06,0,2.21Zm4.56-3.27c0-1.15-.46-1.79-1.42-1.81s-1.3.61-1.32,1.76l0,1.14,2.75,0Z"/>
    <path class="cls-1" d="M.6,99.1l.32-2.24L6.09,95l2.27-.65v-.06c-1-.06-2.43-.07-3.57-.24l-3.42-.48.3-2.08,9.68,1.37L11,95.13,5.86,97l-2.25.65v.06c1.09.06,2.4.06,3.55.23l3.43.48-.3,2.08Z"/>
    <path class="cls-1" d="M7.29,71.44l1-2.47,10.21.75-.86,2.18-2.38-.3-1.1,2.78,1.95,1.41-.83,2.09Zm5.42,1.89.76-1.94-.92-.12c-1-.11-2.18-.29-3.22-.42l0,.05c.87.61,1.84,1.26,2.65,1.87Z"/>
    <path class="cls-1" d="M11.51,61.72l1.56-3c.95-1.79,2.18-2.92,3.83-2a2.29,2.29,0,0,1,1.28,2.12l.05,0a2.21,2.21,0,0,1,2.85-.48c1.76.93,1.76,2.83.77,4.7l-1.7,3.21Zm5-1c.51-1,.33-1.57-.29-1.9s-1.16-.06-1.65.86l-.49.93,1.95,1Zm3.78,1.76c.56-1.06.47-1.8-.32-2.22s-1.34,0-1.91,1l-.58,1.1,2.22,1.18Z"/>
    <path class="cls-1" d="M21.62,53.57c-2.62-1.84-3.08-4.36-1.57-6.52s4.06-2.58,6.66-.75,3.16,4.4,1.64,6.57S24.23,55.4,21.62,53.57Zm3.79-5.42c-1.6-1.12-3-1.1-3.8,0s-.29,2.45,1.31,3.57,3.11,1.16,3.87.06S27,49.28,25.41,48.15Z"/>
    <path class="cls-1" d="M30.23,42.6l-3.88-3.54,1.49-1.64,4.05,3.69c1.42,1.29,2.31,1.29,3,.48s.67-1.72-.75-3l-4-3.69,1.44-1.57,3.88,3.53c2.43,2.21,2.58,4.15.89,6S32.66,44.81,30.23,42.6Z"/>
    <path class="cls-1" d="M38.65,29.23l-2,1.76-1.21-1.4,5.73-5L42.36,26l-2,1.76,5.19,6-1.68,1.46Z"/>
    <path class="cls-1" d="M52.83,22.07c-1.63-2.75-1-5.24,1.25-6.59s4.75-.68,6.38,2.05,1.06,5.31-1.2,6.66S54.46,24.81,52.83,22.07Zm5.68-3.38c-1-1.68-2.31-2.25-3.46-1.57s-1.27,2.11-.28,3.79,2.36,2.33,3.51,1.65S59.52,20.38,58.51,18.69Z"/>
    <path class="cls-1" d="M65.19,15.6l-2.1-4.82,2-.88,2.18,5c.77,1.76,1.58,2.13,2.58,1.69s1.32-1.29.56-3l-2.19-5,2-.85,2.09,4.81c1.31,3,.65,4.85-1.66,5.86S66.5,18.61,65.19,15.6Z"/>
    <path class="cls-1" d="M76,5.6l3.38-1c2-.59,3.82-.38,4.48,1.85A2.89,2.89,0,0,1,83,9.65l3.24,3.12-2.37.7-2.8-2.84L79.92,11l1,3.38L78.81,15ZM80.52,9c1.1-.33,1.57-1,1.3-1.91s-1-1-2.08-.73l-1.09.33.78,2.63Z"/>
    <path class="cls-1" d="M94.91,1.15,97.1.89l1,7.86,3.84-.47.23,1.85-6,.73Z"/>
    <path class="cls-1" d="M108.15,0l2.65,0L114,9.74l-2.34,0L111,7.46l-3,0-.57,2.33-2.25,0Zm.32,5.73,2.08,0-.23-.9c-.29-1-.57-2.12-.84-3.14h-.06c-.23,1-.47,2.18-.72,3.16Z"/>
    <path class="cls-1" d="M118,.08l2.25.26L120.37,5c0,1,0,2.07,0,3.11h.06c.32-1,.63-2,1-3L123,.66l1.87.22.5,4.67c.08,1,.15,2.07.22,3.14h.06l.77-3,1.2-4.46,2.1.24L126.82,11l-2.75-.33-.44-4.52c-.08-.76-.1-1.57-.12-2.3h-.06c-.2.7-.42,1.47-.67,2.2l-1.43,4.3L118.64,10Z"/>
    <path class="cls-1" d="M141.07,4.16,147,6l-.55,1.78-3.78-1.18L142,8.76l3.23,1-.55,1.78-3.24-1-1.12,3.63-2.11-.66Z"/>
    <path class="cls-1" d="M152,7.91l2,.84-3.73,9-2-.84Z"/>
    <path class="cls-1" d="M159.5,11.2l3.11,1.64c1.84,1,3,2.39,1.92,4.45A2.86,2.86,0,0,1,161.67,19l.14,4.5-2.19-1.15v-4l-1.08-.56-1.64,3.12-1.95-1Zm.86,5.54c1,.53,1.81.39,2.26-.46s0-1.43-1-2l-1-.53-1.28,2.43Z"/>
    <path class="cls-1" d="M171,17.61l2,1.39-1.21,4.46c-.16.58-.38,1.2-.56,1.8l.05,0c.5-.38,1-.8,1.49-1.15l3.76-2.67,2,1.38-5.62,8-1.64-1.16,2.06-2.93c.55-.78,1.52-1.85,2.14-2.56l-.05,0-2,1.44L170,27.87l-1-.7,1-3.86.7-2.35-.05,0c-.46.83-1.13,2.1-1.68,2.88L167,26.75l-1.62-1.14Z"/>
  </g>
</svg>
