<?xml version="1.0" encoding="utf-8"?>
<!-- Generator: Adobe Illustrator 23.0.4, SVG Export Plug-In . SVG Version: 6.00 Build 0)  -->
<svg version="1.1" id="twitter" xmlns="http://www.w3.org/2000/svg" xmlns:xlink="http://www.w3.org/1999/xlink" x="0px" y="0px"
	 width="72px" height="72px" viewBox="0 0 72 72" style="enable-background:new 0 0 72 72;" xml:space="preserve">
<style type="text/css">
	.sm-st0{fill:#FFFFFF;}
</style>
<path class="sm-st0" d="M55.4,24c-1.4,0.6-3,1.1-4.6,1.3c1.6-1,2.9-2.5,3.5-4.4c-1.5,0.9-3.2,1.6-5.1,1.9c-1.5-1.5-3.5-2.5-5.8-2.5
	c-4.4,0-8,3.6-8,8c0,0.6,0.1,1.2,0.2,1.8c-6.6-0.3-12.5-3.5-16.4-8.3c-0.7,1.2-1.1,2.5-1.1,4c0,2.8,1.4,5.2,3.5,6.6
	c-1.3,0-2.5-0.4-3.6-1c0,0,0,0.1,0,0.1c0,3.9,2.7,7.1,6.4,7.8c-0.7,0.2-1.4,0.3-2.1,0.3c-0.5,0-1,0-1.5-0.1c1,3.2,4,5.5,7.4,5.5
	c-2.7,2.1-6.2,3.4-9.9,3.4c-0.6,0-1.3,0-1.9-0.1c3.5,2.3,7.7,3.6,12.2,3.6c14.6,0,22.6-12.1,22.6-22.6c0-0.3,0-0.7,0-1
	C53,27,54.3,25.6,55.4,24z"/>
</svg>
