<?xml version="1.0" encoding="utf-8"?>
<!-- Generator: Adobe Illustrator 23.0.4, SVG Export Plug-In . SVG Version: 6.00 Build 0)  -->
<svg version="1.1" id="youtube" xmlns="http://www.w3.org/2000/svg" xmlns:xlink="http://www.w3.org/1999/xlink" x="0px" y="0px"
	 width="72px" height="72px" viewBox="0 0 72 72" style="enable-background:new 0 0 72 72;" xml:space="preserve">
<style type="text/css">
	.sm-st0{fill:#FFFFFF;}
</style>
<path id="YouTube_1_" class="sm-st0" d="M48.6,46.1h-2.4l0-1.4c0-0.6,0.5-1.1,1.1-1.1h0.2c0.6,0,1.1,0.5,1.1,1.1L48.6,46.1z M39.6,43.1
	c-0.6,0-1.1,0.4-1.1,0.9v6.8c0,0.5,0.5,0.9,1.1,0.9c0.6,0,1.1-0.4,1.1-0.9V44C40.7,43.5,40.2,43.1,39.6,43.1z M54.2,39.3v12.9
	c0,3.1-2.7,5.6-5.9,5.6H23.8c-3.3,0-5.9-2.5-5.9-5.6V39.3c0-3.1,2.7-5.6,5.9-5.6h24.5C51.5,33.7,54.2,36.2,54.2,39.3z M25.4,53.6
	l0-13.6l3,0v-2l-8.1,0v2l2.5,0v13.6H25.4z M34.5,42.1H32v7.2c0,1,0.1,1.6,0,1.8c-0.2,0.6-1.1,1.2-1.5,0.1c-0.1-0.2,0-0.8,0-1.8
	l0-7.3h-2.5l0,7.2c0,1.1,0,1.9,0,2.3c0.1,0.7,0,1.4,0.7,1.9c1.1,0.8,3.3-0.1,3.9-1.3l0,1.5l2,0V42.1z M42.6,50.4l0-6
	c0-2.3-1.7-3.7-4.1-1.8l0-4.5L36,38l0,15.5l2.1,0l0.2-1C40.9,54.9,42.6,53.3,42.6,50.4z M50.5,49.6l-1.9,0c0,0.1,0,0.2,0,0.3v1.1
	c0,0.6-0.5,1-1,1h-0.4c-0.6,0-1-0.5-1-1v-0.1v-1.2v-1.5h4.3v-1.6c0-1.2,0-2.4-0.1-3.1C50,41.2,47,40.9,45.5,42
	c-0.5,0.3-0.8,0.8-1.1,1.4c-0.2,0.6-0.3,1.5-0.3,2.5v3.6C44.1,55.5,51.4,54.7,50.5,49.6z M40.8,30.1c0.1,0.3,0.3,0.6,0.6,0.8
	c0.3,0.2,0.6,0.3,1,0.3c0.4,0,0.7-0.1,1-0.3c0.3-0.2,0.5-0.5,0.7-0.9l0,1h2.8v-12h-2.2v9.3c0,0.5-0.4,0.9-0.9,0.9
	c-0.5,0-0.9-0.4-0.9-0.9v-9.3h-2.3V27c0,1,0,1.7,0,2.1C40.6,29.4,40.6,29.7,40.8,30.1z M32.2,23.3c0-1.2,0.1-2,0.3-2.7
	c0.2-0.6,0.5-1.2,1-1.6c0.5-0.4,1.1-0.6,1.9-0.6c0.7,0,1.2,0.1,1.7,0.4c0.5,0.3,0.8,0.6,1.1,1c0.3,0.4,0.4,0.8,0.5,1.2
	c0.1,0.4,0.1,1.1,0.1,2v3c0,1.1,0,1.9-0.1,2.4c-0.1,0.5-0.3,1-0.6,1.5c-0.3,0.4-0.6,0.8-1.1,1c-0.4,0.2-1,0.3-1.5,0.3
	c-0.6,0-1.2-0.1-1.6-0.3c-0.4-0.2-0.8-0.5-1-0.8c-0.2-0.4-0.4-0.8-0.5-1.3c-0.1-0.5-0.2-1.3-0.2-2.4V23.3z M34.4,28
	c0,0.7,0.5,1.2,1.1,1.2c0.6,0,1.1-0.6,1.1-1.2v-6.4c0-0.7-0.5-1.2-1.1-1.2c-0.6,0-1.1,0.6-1.1,1.2V28z M26.6,31.3h2.7l0-9.2l3.1-7.9
	h-2.9l-1.7,5.8l-1.7-5.9h-2.9l3.3,7.9L26.6,31.3z"/>
</svg>
