<?xml version="1.0" encoding="utf-8"?>
<!-- Generator: Adobe Illustrator 23.0.4, SVG Export Plug-In . SVG Version: 6.00 Build 0)  -->
<svg version="1.1" id="fb" xmlns="http://www.w3.org/2000/svg" xmlns:xlink="http://www.w3.org/1999/xlink" x="0px" y="0px"
	 width="72px" height="72px" viewBox="0 0 72 72" style="enable-background:new 0 0 72 72;" xml:space="preserve">
<style type="text/css">
	.sm-st0{fill:#FFFFFF;}
</style>
<path id="Facebook_3_" class="sm-st0" d="M31.1,24.7c0,0.9,0,5.1,0,5.1h-3.7V36h3.7v18.4h7.6V36h5.1c0,0,0.5-3,0.7-6.2
	c-0.7,0-5.8,0-5.8,0s0-3.6,0-4.2c0-0.6,0.8-1.5,1.7-1.5c0.8,0,2.5,0,4.2,0c0-0.8,0-3.8,0-6.4c-2.1,0-4.6,0-5.6,0
	C30.9,17.6,31.1,23.8,31.1,24.7z"/>
</svg>
