<?xml version="1.0" encoding="utf-8"?>
<!-- Generator: Adobe Illustrator 23.0.4, SVG Export Plug-In . SVG Version: 6.00 Build 0)  -->
<svg version="1.1" id="insta" xmlns="http://www.w3.org/2000/svg" xmlns:xlink="http://www.w3.org/1999/xlink" x="0px" y="0px"
	 width="72px" height="72px" viewBox="0 0 72 72" style="enable-background:new 0 0 72 72;" xml:space="preserve">
<style type="text/css">
	.sm-st0{fill:#FFFFFF;}
</style>
<g>
	<path class="sm-st0" d="M36,19.4c5.4,0,6.1,0,8.2,0.1c2,0.1,3.1,0.4,3.8,0.7c0.9,0.4,1.6,0.8,2.3,1.5c0.7,0.7,1.1,1.4,1.5,2.3
		c0.3,0.7,0.6,1.8,0.7,3.8c0.1,2.1,0.1,2.8,0.1,8.2c0,5.4,0,6.1-0.1,8.2c-0.1,2-0.4,3.1-0.7,3.8c-0.4,0.9-0.8,1.6-1.5,2.3
		c-0.7,0.7-1.4,1.1-2.3,1.5c-0.7,0.3-1.8,0.6-3.8,0.7c-2.1,0.1-2.8,0.1-8.2,0.1c-5.4,0-6.1,0-8.2-0.1c-2-0.1-3.1-0.4-3.8-0.7
		c-0.9-0.4-1.6-0.8-2.3-1.5c-0.7-0.7-1.1-1.4-1.5-2.3c-0.3-0.7-0.6-1.8-0.7-3.8c-0.1-2.1-0.1-2.8-0.1-8.2c0-5.4,0-6.1,0.1-8.2
		c0.1-2,0.4-3.1,0.7-3.8c0.4-0.9,0.8-1.6,1.5-2.3c0.7-0.7,1.4-1.1,2.3-1.5c0.7-0.3,1.8-0.6,3.8-0.7C29.9,19.4,30.6,19.4,36,19.4
		 M36,15.7c-5.5,0-6.2,0-8.4,0.1c-2.2,0.1-3.6,0.4-4.9,0.9c-1.3,0.5-2.5,1.2-3.6,2.3c-1.1,1.1-1.8,2.3-2.3,3.6
		c-0.5,1.3-0.8,2.8-0.9,4.9c-0.1,2.2-0.1,2.9-0.1,8.4c0,5.5,0,6.2,0.1,8.4c0.1,2.2,0.4,3.6,0.9,4.9c0.5,1.3,1.2,2.5,2.3,3.6
		c1.1,1.1,2.3,1.8,3.6,2.3c1.3,0.5,2.8,0.8,4.9,0.9c2.2,0.1,2.9,0.1,8.4,0.1c5.5,0,6.2,0,8.4-0.1c2.2-0.1,3.6-0.4,4.9-0.9
		c1.3-0.5,2.5-1.2,3.6-2.3c1.1-1.1,1.8-2.3,2.3-3.6c0.5-1.3,0.8-2.8,0.9-4.9c0.1-2.2,0.1-2.9,0.1-8.4c0-5.5,0-6.2-0.1-8.4
		c-0.1-2.2-0.4-3.6-0.9-4.9c-0.5-1.3-1.2-2.5-2.3-3.6c-1.1-1.1-2.3-1.8-3.6-2.3c-1.3-0.5-2.8-0.8-4.9-0.9
		C42.2,15.7,41.5,15.7,36,15.7"/>
	<path class="sm-st0" d="M36,25.6c-5.8,0-10.4,4.7-10.4,10.4c0,5.8,4.7,10.4,10.4,10.4c5.8,0,10.4-4.7,10.4-10.4
		C46.4,30.2,41.8,25.6,36,25.6 M36,42.8c-3.7,0-6.8-3-6.8-6.8c0-3.7,3-6.8,6.8-6.8c3.7,0,6.8,3,6.8,6.8C42.8,39.7,39.7,42.8,36,42.8
		"/>
	<path class="sm-st0" d="M49.3,25.2c0,1.3-1.1,2.4-2.4,2.4c-1.3,0-2.4-1.1-2.4-2.4c0-1.3,1.1-2.4,2.4-2.4
		C48.2,22.7,49.3,23.8,49.3,25.2"/>
</g>
</svg>
