<?xml version="1.0" encoding="utf-8"?>
<!-- Generator: Adobe Illustrator 23.0.3, SVG Export Plug-In . SVG Version: 6.00 Build 0)  -->
<svg version="1.1" id="Calque_1" xmlns="http://www.w3.org/2000/svg" xmlns:xlink="http://www.w3.org/1999/xlink" x="0px" y="0px"
	 width="60.8px" height="59.4px" viewBox="0 0 60.8 59.4" style="enable-background:new 0 0 60.8 59.4;" xml:space="preserve">
<style type="text/css">
	.st0{fill:#FDD334;}
	.st1{fill-rule:evenodd;clip-rule:evenodd;fill:#FFFFFF;}
	.st2{fill-rule:evenodd;clip-rule:evenodd;fill:#D8E5EF;}
	.st3{fill:#FFFFFF;}
	.st4{fill:#EBEBEB;}
	.st5{fill:#D8E5EF;}
	.st6{fill:#F9FAFA;}
	.st7{fill:#0C183D;}
	.st8{fill-rule:evenodd;clip-rule:evenodd;fill:#545960;}
	.st9{fill-rule:evenodd;clip-rule:evenodd;fill:#7B7B7B;}
	.st10{fill:#BB2025;}
</style>
<g>
	<path class="st1" d="M46.8,0.1C46.3,0,45.6,0,45,0c-7.5,0-11.3,3.7-15,11.1C26.3,3.7,22.5,0,15,0C6.7,0,0,6.6,0,14.8
		C0,29.5,15,44.3,30,59c5.9-5.8,11.8-11.6,16.8-17.5c7.7-9,13.2-17.9,13.2-26.8C60,7.2,54.3,1,46.8,0.1z M46.8,9
		C46.8,9,46.8,9,46.8,9C46.9,9,46.9,9,47,9C46.9,9,46.8,9,46.8,9z M48.2,23.4c0,0,0-0.1,0-0.1C48.2,23.3,48.2,23.4,48.2,23.4z"/>
	<path class="st2" d="M47.8,0.5C47.3,22,36,40.3,19.8,48.4c3.5,3.7,7.2,7.3,10.9,11c5.9-5.8,11.8-11.6,16.8-17.5
		c7.7-9,13.2-17.9,13.2-26.8C60.8,7.6,55.1,1.4,47.8,0.5z M47.5,9.3C47.5,9.3,47.6,9.3,47.5,9.3c0.1,0,0.2,0.1,0.2,0.1
		C47.6,9.4,47.6,9.3,47.5,9.3z M49,23.8c0,0,0-0.1,0-0.1C49,23.7,49,23.8,49,23.8z"/>
</g>
</svg>
