<?xml version="1.0" encoding="utf-8"?>
<!-- Generator: Adobe Illustrator 23.0.3, SVG Export Plug-In . SVG Version: 6.00 Build 0)  -->
<svg version="1.1" id="Calque_1" xmlns="http://www.w3.org/2000/svg" xmlns:xlink="http://www.w3.org/1999/xlink" x="0px" y="0px"
	 width="62.2px" height="63px" viewBox="0 0 62.2 63" style="enable-background:new 0 0 62.2 63;" xml:space="preserve">
<style type="text/css">
	.st0{fill:#FDD334;}
	.st1{fill-rule:evenodd;clip-rule:evenodd;fill:#FFFFFF;}
	.st2{fill-rule:evenodd;clip-rule:evenodd;fill:#D8E5EF;}
	.st3{fill:#FFFFFF;}
	.st4{fill:#EBEBEB;}
	.st5{fill:#D8E5EF;}
	.st6{fill:#F9FAFA;}
	.st7{fill:#0C183D;}
	.st8{fill-rule:evenodd;clip-rule:evenodd;fill:#545960;}
	.st9{fill-rule:evenodd;clip-rule:evenodd;fill:#7B7B7B;}
	.st10{fill:#BB2025;}
</style>
<g>
	<rect y="53.8" class="st3" width="62.2" height="9.2"/>
	<polygon class="st3" points="61.1,23.6 30.2,0 0.1,23.6 0.1,29.6 61.1,29.6 	"/>
	<rect x="5.2" y="29.6" class="st3" width="5.8" height="25.6"/>
	<rect x="3.2" y="50.1" class="st3" width="9.7" height="5.1"/>
	<rect x="4.3" y="29.6" class="st3" width="7.5" height="4.1"/>
	<rect x="20.5" y="29.6" class="st3" width="5.8" height="25.6"/>
	<rect x="18.6" y="50.1" class="st3" width="9.7" height="5.1"/>
	<rect x="19.6" y="29.6" class="st3" width="7.5" height="4.1"/>
	<rect x="36.3" y="29.6" class="st3" width="5.8" height="25.6"/>
	<rect x="34.4" y="50.1" class="st3" width="9.7" height="5.1"/>
	<rect x="35.5" y="29.6" class="st3" width="7.5" height="4.1"/>
	<rect x="51.6" y="29.6" class="st3" width="5.8" height="25.6"/>
	<rect x="49.6" y="50.1" class="st3" width="9.7" height="5.1"/>
	<rect x="50.7" y="29.6" class="st3" width="7.5" height="4.1"/>
	<polygon class="st4" points="55.6,24.2 30.3,5.9 5.7,24.2 5.7,25.9 55.6,25.9 	"/>
	<rect y="59" class="st5" width="62.2" height="3.7"/>
</g>
</svg>
