<?xml version="1.0" encoding="utf-8"?>
<!-- Generator: Adobe Illustrator 23.0.3, SVG Export Plug-In . SVG Version: 6.00 Build 0)  -->
<svg version="1.1" id="Calque_1" xmlns="http://www.w3.org/2000/svg" xmlns:xlink="http://www.w3.org/1999/xlink" x="0px" y="0px"
	 width="56.4px" height="64.9px" viewBox="0 0 56.4 64.9" style="enable-background:new 0 0 56.4 64.9;" xml:space="preserve">
<style type="text/css">
	.st0{fill:#FDD334;}
	.st1{fill-rule:evenodd;clip-rule:evenodd;fill:#FFFFFF;}
	.st2{fill-rule:evenodd;clip-rule:evenodd;fill:#D8E5EF;}
	.st3{fill:#FFFFFF;}
	.st4{fill:#EBEBEB;}
	.st5{fill:#D8E5EF;}
	.st6{fill:#F9FAFA;}
	.st7{fill:#0C183D;}
	.st8{fill-rule:evenodd;clip-rule:evenodd;fill:#545960;}
	.st9{fill-rule:evenodd;clip-rule:evenodd;fill:#7B7B7B;}
	.st10{fill:#BB2025;}
</style>
<g>
	<path id="XMLID_36_" class="st3" d="M43,17.5C42.9,0.9,42.9,0,42.9,0L13.1,0.1c0,0,0,2.2,0.1,17.5c0,13.7,10.4,21.4,12.5,22.8
		c0,0.9-0.1,3.4-0.9,6.7c-1,4.3-5.1,5.5-5.1,5.5l-0.5,0c-0.7,0-1.2,0.6-1.2,1.2c0,0.7,0.6,1.2,1.2,1.2l9.1,0l9.1,0
		c0.7,0,1.2-0.6,1.2-1.2c0-0.7-0.6-1.2-1.2-1.2l-0.5,0c0,0-4.1-1.2-5.1-5.4c-0.9-3.6-0.9-6.2-0.9-6.9C33.2,38.7,43,31.9,43,17.5z"/>
	<path id="XMLID_35_" class="st3" d="M40.4,36.8c-0.5,0-1.1-0.1-1.5-0.4c-0.8-0.5-1.2-1.4-1.1-2.5c0.1-1,1.2-1.9,3.9-4.1
		c3.9-3.1,9.7-7.8,11.6-13.6c1.4-4.7,1.4-8.3,0-10.5c-0.8-1.3-2.2-2.1-3.8-2.3C45,3.7,44.9,6.6,44.9,7c0,0.2,0.3,2.5,2.2,2.8
		c0.5,0.1,0.9,0.6,0.8,1.2c-0.1,0.5-0.6,0.9-1.2,0.8C44,11.4,43.1,8.6,43,7.2c0,0,0,0,0,0c0-0.1-0.2-5.4,6.5-5.8c0.1,0,0.1,0,0.2,0
		c2.3,0.3,4.2,1.4,5.4,3.2c1.8,2.7,1.9,6.8,0.3,12.2C53.2,23.2,47,28.1,43,31.4c-1.4,1.1-2.9,2.3-3.2,2.8c0,0.4,0.1,0.5,0.1,0.5
		c0.3,0.2,0.9,0.1,1,0c0.5-0.3,1.1-0.2,1.4,0.2c0.3,0.5,0.2,1.1-0.2,1.4C41.7,36.6,41.1,36.8,40.4,36.8z"/>
	
		<rect id="XMLID_34_" x="16.5" y="54.6" transform="matrix(1 -3.291293e-03 3.291293e-03 1 -0.1964 9.267718e-02)" class="st3" width="23.1" height="10.2"/>
	<polygon id="XMLID_33_" class="st4" points="35,62.7 20.6,62.8 20,62.2 19.9,57.4 20.6,56.7 35,56.7 35.6,57.3 35.6,62.1 	"/>
	<path id="XMLID_32_" class="st5" d="M16.6,37.2c0.5,0,1-0.1,1.5-0.4c0.8-0.5,1.2-1.4,1-2.5c-0.2-1-1.3-1.9-4-4
		c-3.9-3-9.9-7.5-11.9-13.3C1.7,12.3,1.6,8.6,3,6.4c0.8-1.3,2.1-2.2,3.8-2.4c4.4,0.2,4.6,3.2,4.6,3.6c0,0.2-0.2,2.5-2.1,2.9
		c-0.5,0.1-0.9,0.6-0.8,1.2c0.1,0.5,0.6,0.9,1.2,0.8c2.8-0.5,3.6-3.3,3.7-4.7c0,0,0,0,0,0c0-0.1,0.1-5.4-6.6-5.7c-0.1,0-0.1,0-0.2,0
		C4.3,2.3,2.4,3.5,1.3,5.3c-1.7,2.8-1.7,6.9,0,12.2c2.2,6.4,8.5,11.1,12.6,14.3c1.4,1.1,3,2.3,3.2,2.7c0,0.4-0.1,0.5-0.1,0.5
		c-0.3,0.2-0.9,0.1-1,0c-0.5-0.3-1.1-0.2-1.4,0.3c-0.3,0.5-0.2,1.1,0.3,1.4C15.3,37,15.9,37.2,16.6,37.2z"/>
	<path id="XMLID_31_" class="st5" d="M27.2,0.1l-14.8,0c0,0,0,2.2,0.1,17.3c0,13.6,10.4,21.2,12.5,22.6c0,0.9-0.1,3.4-0.9,6.7
		c-1,4.3-5.1,5.4-5.1,5.4l-0.5,0c-0.7,0-1.2,0.6-1.2,1.2c0,0.7,0.6,1.2,1.2,1.2l9.1,0l0.4,0L27.2,0.1z"/>
	<path id="XMLID_30_" class="st3" d="M18,20.6C17.9,5.4,17.9,3.2,17.9,3.2l-3.1,0c0,0,0,1.5,0,15.1c0,8.2,4,14,7.2,17.3
		C19.8,31.9,18,26.9,18,20.6z"/>
</g>
<g>
	<path class="st10" d="M113.5,41.8h-2c0-21.8-8.6-42.2-24.1-57.6C71.8-31.3,51.1-39.8,29.1-39.8s-42.7,8.5-58.2,23.9
		C-44.7-0.5-53.2,20-53.2,41.8h-2c0-22.3,8.8-43.3,24.7-59.1c15.9-15.8,37.1-24.5,59.6-24.5s43.7,8.7,59.6,24.5
		C104.7-1.5,113.5,19.4,113.5,41.8z"/>
</g>
</svg>
