<svg version="1.1" id="star-orange" xmlns="http://www.w3.org/2000/svg" xmlns:xlink="http://www.w3.org/1999/xlink" x="0px" y="0px"
	 width="154.9px" height="21px" viewBox="0 0 154.9 21" style="enable-background:new 0 0 154.9 21;" xml:space="preserve">
<style type="text/css">
	.star-orange-st0{fill:#ffae00;}
	
</style>
<g>
	<g>
		<path class="star-orange-st0" d="M80.5,0l-0.9,7.9l8-2.2l0.8,5.8L81,11.9l4.7,6.3L80.7,21l-3.3-6.7l-3,6.7l-5.2-2.8l4.7-6.3l-7.2-0.6l0.9-5.7
			l7.8,2.2L74.4,0H80.5z"/>
	</g>
	<g>
		<path class="star-orange-st0" d="M113.8,0l-0.9,7.9l8-2.2l0.8,5.8l-7.3,0.5l4.7,6.3L114,21l-3.3-6.7l-3,6.7l-5.2-2.8l4.7-6.3l-7.2-0.6l0.9-5.7
			l7.8,2.2L107.7,0H113.8z"/>
	</g>
	<g>
		<path class="star-orange-st0" d="M147.1,0l-0.9,7.9l8-2.2l0.8,5.8l-7.3,0.5l4.7,6.3l-5.1,2.8l-3.3-6.7l-3,6.7l-5.2-2.8l4.7-6.3l-7.2-0.6
			l0.9-5.7l7.8,2.2L141,0H147.1z"/>
	</g>
	<g>
		<path class="star-orange-st0" d="M13.9,0l-0.9,7.9l8-2.2l0.8,5.8l-7.3,0.5l4.7,6.3L14.1,21l-3.3-6.7l-3,6.7l-5.2-2.8l4.7-6.3L0,11.3l0.9-5.7
			l7.8,2.2L7.8,0H13.9z"/>
	</g>
	<g>
		<path class="star-orange-st0" d="M47.2,0l-0.9,7.9l8-2.2l0.8,5.8l-7.3,0.5l4.7,6.3L47.4,21l-3.3-6.7l-3,6.7l-5.2-2.8l4.7-6.3l-7.2-0.6l0.9-5.7
			L42,7.9L41.1,0H47.2z"/>
	</g>
</g>
</svg>
